<svg width="151" height="66" viewBox="0 0 151 66" fill="none" xmlns="http://www.w3.org/2000/svg">
<g clip-path="url(#clip0_1_40)">
<path d="M99.0801 15.0001V51H90.08V27.0001H84.0801V18H90.08V15.0001H99.0801ZM128.48 30H137.78C136.28 21.6001 129.08 15.0001 120.08 15.0001C110.18 15.0001 102.08 23.1 102.08 33C102.08 42.6992 109.855 50.6805 119.48 51H150.08V42H120.08C111.537 41.8086 108.694 32.4077 113.239 27.0929C117.735 21.8713 126.236 23.5266 128.503 30.0651" fill="black"/>
</g>
<path fill-rule="evenodd" clip-rule="evenodd" d="M14.1201 6.6C14.1201 4.84957 14.8154 3.17084 16.0532 1.9331C17.2909 0.695355 18.9696 0 20.7201 0L47.7845 0L62.5201 9.8208V50.6C62.5201 52.3504 61.8247 54.0292 60.587 55.2669C59.3492 56.5046 57.6705 57.2 55.9201 57.2H53.7201V59.4C53.7201 61.1504 53.0247 62.8292 51.787 64.0669C50.5492 65.3046 48.8705 66 47.1201 66H11.9201C10.1696 66 8.4909 65.3046 7.25316 64.0669C6.01542 62.8292 5.32007 61.1504 5.32007 59.4V15.4C5.32007 13.6496 6.01542 11.9708 7.25316 10.7331C8.4909 9.49536 10.1696 8.8 11.9201 8.8H14.1201V6.6ZM14.1201 13.2H11.9201C11.3366 13.2 10.777 13.4318 10.3644 13.8444C9.95185 14.2569 9.72007 14.8165 9.72007 15.4V59.4C9.72007 59.9835 9.95185 60.5431 10.3644 60.9556C10.777 61.3682 11.3366 61.6 11.9201 61.6H47.1201C47.7035 61.6 48.2631 61.3682 48.6757 60.9556C49.0883 60.5431 49.3201 59.9835 49.3201 59.4V57.2H20.7201C18.9696 57.2 17.2909 56.5046 16.0532 55.2669C14.8154 54.0292 14.1201 52.3504 14.1201 50.6V13.2Z" fill="black"/>
<defs>
<clipPath id="clip0_1_40">
<rect width="66" height="66" fill="white" transform="translate(84.0801)"/>
</clipPath>
</defs>
</svg>
