<svg width="114" height="70" viewBox="0 0 114 70" fill="none" xmlns="http://www.w3.org/2000/svg">
<path d="M113.196 43.4093C113.16 39.7823 112.328 36.2074 110.761 32.9363C109.194 29.6652 106.928 26.7774 104.125 24.4761C101.321 22.1748 98.0471 20.516 94.5332 19.6164C91.0193 18.7168 87.3509 18.5984 83.7863 19.2693C80.1981 12.6555 74.6062 7.34901 67.8136 4.11195C61.021 0.874897 53.3772 -0.126169 45.9801 1.25252C38.583 2.63122 31.8132 6.31874 26.6428 11.7855C21.4725 17.2522 18.1677 24.2169 17.203 31.6793C13.9004 32.0285 10.7544 33.267 8.10002 35.2628C5.44562 37.2586 3.38226 39.9369 2.12967 43.0127C0.709446 46.6069 0.392956 50.543 1.22064 54.318C2.04832 58.0931 3.98258 61.5356 6.77634 64.206C13.123 70.0427 21.1697 69.2493 29.103 69.2493H86.6197C93.3881 69.5195 99.9874 67.0938 104.97 62.5046C109.952 57.9153 112.911 51.5371 113.196 44.7693V43.4093ZM86.8463 63.5827C80.103 63.6393 73.3597 63.5827 66.673 63.5827C51.0897 63.5827 35.563 63.9227 20.0363 63.5827C17.0626 63.6331 14.1556 62.6992 11.7676 60.9262C9.37973 59.1532 7.64485 56.6406 6.83301 53.7793C6.30142 51.8071 6.23406 49.7385 6.63621 47.7359C7.03835 45.7333 7.89907 43.8511 9.15082 42.237C10.4026 40.6229 12.0113 39.3208 13.8508 38.4329C15.6903 37.545 17.7106 37.0953 19.753 37.1193C20.4977 37.0979 21.206 36.7926 21.7328 36.2658C22.2596 35.739 22.5649 35.0307 22.5863 34.286C23.0713 27.6311 25.7586 21.3271 30.2242 16.3691C34.6898 11.4111 40.6794 8.08136 47.2475 6.90546C53.8157 5.72956 60.5884 6.77444 66.4968 9.8752C72.4051 12.976 77.1126 17.956 79.8763 24.0293C80.19 24.5637 80.6702 24.9805 81.2433 25.2158C81.8165 25.4512 82.451 25.4923 83.0497 25.3327C85.9411 24.467 88.9967 24.3 91.9653 24.8451C94.9339 25.3903 97.7308 26.6322 100.126 28.4687C102.521 30.3052 104.446 32.6839 105.743 35.4093C107.04 38.1347 107.672 41.129 107.586 44.146C107.544 46.7975 106.969 49.4133 105.895 51.838C104.821 54.2626 103.271 56.4465 101.336 58.2599C99.4008 60.0732 97.1209 61.4789 94.6318 62.3933C92.1426 63.3077 89.495 63.7122 86.8463 63.5827Z" fill="black"/>
</svg>
