<svg width="70" height="56" viewBox="0 0 70 56" fill="none" xmlns="http://www.w3.org/2000/svg">
<path d="M61.25 0.5H8.75C6.43012 0.502482 4.20596 1.42515 2.56556 3.06556C0.925151 4.70596 0.0024816 6.93012 0 9.25V46.75C0.0024816 49.0699 0.925151 51.294 2.56556 52.9344C4.20596 54.5749 6.43012 55.4975 8.75 55.5H61.25C63.5699 55.4975 65.794 54.5749 67.4344 52.9344C69.0749 51.294 69.9975 49.0699 70 46.75V9.25C69.9975 6.93012 69.0749 4.70596 67.4344 3.06556C65.794 1.42515 63.5699 0.502482 61.25 0.5ZM59.0344 14.9734L36.5344 32.4734C36.0956 32.8145 35.5557 32.9997 35 32.9997C34.4443 32.9997 33.9044 32.8145 33.4656 32.4734L10.9656 14.9734C10.7013 14.7738 10.4792 14.5236 10.3124 14.2374C10.1456 13.9512 10.0373 13.6347 9.99383 13.3063C9.95037 12.9779 9.97262 12.6442 10.0593 12.3244C10.1459 12.0047 10.2953 11.7054 10.4986 11.4439C10.7019 11.1824 10.9552 10.9639 11.2437 10.8011C11.5322 10.6383 11.8502 10.5345 12.1792 10.4956C12.5082 10.4568 12.8416 10.4838 13.1601 10.5749C13.4786 10.666 13.7757 10.8196 14.0344 11.0266L35 27.3328L55.9656 11.0266C56.4899 10.6307 57.1489 10.457 57.8002 10.5432C58.4514 10.6294 59.0426 10.9684 59.4459 11.4871C59.8491 12.0057 60.032 12.6622 59.955 13.3146C59.878 13.967 59.5473 14.5629 59.0344 14.9734Z" fill="black"/>
</svg>
