<svg width="200" height="36" viewBox="0 0 200 36" fill="none" xmlns="http://www.w3.org/2000/svg">
<path d="M132.341 0H112.992V3.70534H120.4V35.392H125.037V3.70534H132.445V0H132.341ZM155.096 0H135.748V3.70534H143.156V35.392H147.793V3.70534H155.2V0H155.096ZM161.022 35.392H174.963V31.6866H165.659V18.865H174.963V15.1596H165.659V3.70534H174.963V0H161.022V35.392ZM94.0891 35.392H108.03V31.6866H98.6666V18.865H107.97V15.1596H98.6666V3.70534H107.97V0H94.0445V35.392H94.0891ZM195.422 15.1596H187.837V3.67595H195.422V15.1596ZM183.215 35.392H187.852V18.865H196.015C197.079 18.8457 198.092 18.4127 198.838 17.6593C199.583 16.9058 200 15.892 200 14.8361V4.02883C200 3.49977 199.895 2.97587 199.691 2.48707C199.487 1.99827 199.188 1.55413 198.811 1.18002C198.434 0.805907 197.987 0.509145 197.494 0.306677C197.002 0.104209 196.474 0 195.941 0H183.156V35.392H183.215ZM38.6074 3.67595V31.7013H46.489V25.9963H51.1112V31.3632C51.1073 32.4305 50.6785 33.453 49.9178 34.2077C49.1576 34.9624 48.1273 35.3882 47.0518 35.392H38.0148C36.9396 35.3882 35.9094 34.9624 35.1488 34.2077C34.3884 33.453 33.9595 32.4305 33.9556 31.3632V4.02883C33.9595 2.95897 34.3905 1.93426 35.154 1.17912C35.9178 0.423987 36.9516 -7.07347e-06 38.0296 0L47.0665 0C48.1396 0.00773704 49.166 0.435153 49.9231 1.18945C50.6802 1.94375 51.1073 2.96405 51.1112 4.02883V9.38101H46.489V3.67595H38.6074ZM71.3629 19.7031L64.9629 9.49865L64.3112 7.79299V35.392H59.689V0H63.8964L72.2518 13.3216L80.6075 0H84.8149V35.392H80.1928V7.79299L79.5555 9.49865L73.1555 19.7031H71.3629ZM22.7407 0H0V3.70534H22.7407V0ZM22.7407 7.92533H2.53333V11.6307H22.7407V7.92533ZM22.7407 15.8507H2.53333V19.556H22.7407V15.8507ZM22.7407 23.776H0V27.4814H22.7407V23.776ZM22.7407 31.7013H2.53333V35.4067H22.7407V31.6866V31.7013Z" fill="black"/>
</svg>
