<svg width="76" height="76" viewBox="0 0 76 76" fill="none" xmlns="http://www.w3.org/2000/svg">
<path d="M68.125 51.5833L57.5417 50.375C56.2972 50.2288 55.0359 50.3666 53.8523 50.778C52.6688 51.1893 51.5939 51.8635 50.7083 52.75L43.0417 60.4167C31.2133 54.4009 21.5991 44.7867 15.5833 32.9583L23.2917 25.25C25.0833 23.4583 25.9583 20.9583 25.6667 18.4167L24.4583 7.91666C24.2221 5.88406 23.2466 4.00931 21.7177 2.64936C20.1887 1.28941 18.213 0.53923 16.1667 0.541662H8.95833C4.25 0.541662 0.333333 4.45833 0.625 9.16666C2.83333 44.75 31.2917 73.1667 66.8333 75.375C71.5417 75.6667 75.4583 71.75 75.4583 67.0417V59.8333C75.5 55.625 72.3333 52.0833 68.125 51.5833Z" fill="black"/>
</svg>
