<svg width="100" height="64" viewBox="0 0 100 64" fill="none" xmlns="http://www.w3.org/2000/svg">
<path d="M41.525 51.3375C41.8152 51.0415 42.1613 50.8061 42.5433 50.6452C42.9253 50.4842 43.3355 50.4009 43.75 50.4H56.25C56.6645 50.4009 57.0747 50.4842 57.4567 50.6452C57.8387 50.8061 58.1848 51.0415 58.475 51.3375C59.5688 52.4437 60.9125 53.5063 62.2438 54.4375C63.7491 55.4851 65.3189 56.4369 66.9438 57.2875L67.0063 57.325H67.025C67.6576 57.6385 68.1654 58.1569 68.4656 58.7959C68.7659 59.4348 68.841 60.1566 68.6786 60.8436C68.5163 61.5307 68.1261 62.1425 67.5716 62.5795C67.0171 63.0165 66.331 63.2528 65.625 63.25H34.375C33.6713 63.25 32.9882 63.0124 32.4364 62.5758C31.8845 62.1392 31.4961 61.5291 31.3341 60.8443C31.1722 60.1595 31.246 59.4401 31.5438 58.8025C31.8416 58.165 32.3459 57.6466 32.975 57.3313L32.9875 57.325L33.05 57.2875C33.5031 57.0595 33.9491 56.8177 34.3875 56.5625C35.5382 55.8992 36.662 55.1903 37.7563 54.4375C39.0938 53.5 40.4313 52.4437 41.525 51.3375ZM43.75 22.625C43.75 20.9674 44.4085 19.3777 45.5806 18.2056C46.7527 17.0335 48.3424 16.375 50 16.375C51.6576 16.375 53.2473 17.0335 54.4194 18.2056C55.5915 19.3777 56.25 20.9674 56.25 22.625C56.25 24.2826 55.5915 25.8723 54.4194 27.0444C53.2473 28.2165 51.6576 28.875 50 28.875C48.3424 28.875 46.7527 28.2165 45.5806 27.0444C44.4085 25.8723 43.75 24.2826 43.75 22.625Z" fill="black"/>
<path d="M12.5 0.75C9.18479 0.75 6.00537 2.06696 3.66117 4.41116C1.31696 6.75537 0 9.93479 0 13.25L0 32C0 35.3152 1.31696 38.4946 3.66117 40.8388C6.00537 43.183 9.18479 44.5 12.5 44.5H87.5C90.8152 44.5 93.9946 43.183 96.3388 40.8388C98.683 38.4946 100 35.3152 100 32V13.25C100 9.93479 98.683 6.75537 96.3388 4.41116C93.9946 2.06696 90.8152 0.75 87.5 0.75H12.5ZM50 10.125C53.3152 10.125 56.4946 11.442 58.8388 13.7862C61.183 16.1304 62.5 19.3098 62.5 22.625C62.5 25.9402 61.183 29.1196 58.8388 31.4638C56.4946 33.808 53.3152 35.125 50 35.125C46.6848 35.125 43.5054 33.808 41.1612 31.4638C38.817 29.1196 37.5 25.9402 37.5 22.625C37.5 19.3098 38.817 16.1304 41.1612 13.7862C43.5054 11.442 46.6848 10.125 50 10.125ZM78.125 25.75C77.2962 25.75 76.5013 25.4208 75.9153 24.8347C75.3292 24.2487 75 23.4538 75 22.625C75 21.7962 75.3292 21.0013 75.9153 20.4153C76.5013 19.8292 77.2962 19.5 78.125 19.5C78.9538 19.5 79.7487 19.8292 80.3347 20.4153C80.9208 21.0013 81.25 21.7962 81.25 22.625C81.25 23.4538 80.9208 24.2487 80.3347 24.8347C79.7487 25.4208 78.9538 25.75 78.125 25.75Z" fill="black"/>
</svg>
