<?xml version="1.0" encoding="utf-8"?>
<!-- Generator: Adobe Illustrator 27.2.0, SVG Export Plug-In . SVG Version: 6.00 Build 0)  -->
<svg version="1.1" id="Слой_1" xmlns="http://www.w3.org/2000/svg" xmlns:xlink="http://www.w3.org/1999/xlink" x="0px" y="0px"
	 viewBox="0 0 422 500" style="enable-background:new 0 0 422 500;" xml:space="preserve">
<g>
	<path d="M253.67,399.17l-29.75-29.91c-0.05-0.12-0.12-0.24-0.22-0.34c-2.4-2.35-3.66-8.09-3.66-10.5v-36.78h9.74
		c1.99,0,7.14,1.86,10.6,3.83c0.31,0.17,0.69,0.18,0.99,0c0.31-0.18,0.5-0.51,0.5-0.86v-18.23c0-0.37-0.21-0.71-0.54-0.89
		c-0.33-0.17-0.73-0.14-1.04,0.07c-2.05,1.46-7.62,3.78-10.35,3.78h-9.91v-10.28c0-1.99,1.86-7.14,3.83-10.6
		c0.18-0.31,0.17-0.69,0-0.99c-0.18-0.31-0.51-0.5-0.86-0.5h-18.23c-0.37,0-0.71,0.21-0.89,0.54c-0.17,0.33-0.14,0.73,0.07,1.04
		c1.46,2.05,3.78,7.62,3.78,10.35v10.45h-9.11c-2.05,0-7.83-1.43-11.13-3.78c-0.3-0.22-0.7-0.24-1.04-0.07
		c-0.33,0.17-0.54,0.51-0.54,0.89v18.23c0,0.41,0.25,0.77,0.62,0.92c0.38,0.15,0.81,0.06,1.09-0.23c2.35-2.4,8.08-3.66,10.49-3.66
		h9.62v36.27c0,1.97-1.32,7.38-3.5,10.73l-30.36,30.53l-39.15-39.36c-0.29-0.29-0.71-0.37-1.09-0.22c-0.37,0.15-0.62,0.52-0.62,0.92
		v65.94c0,0.26,0.1,0.52,0.29,0.7l39.82,40.03c0.19,0.19,0.45,0.29,0.71,0.29c0.01,0,0.03,0,0.04,0c0.01,0,0.03,0,0.04,0
		c0.26,0,0.52-0.1,0.71-0.29l39.15-39.36l39.15,39.36c0.19,0.19,0.45,0.29,0.71,0.29c0.01,0,0.03,0,0.04,0c0.01,0,0.03,0,0.04,0
		c0.26,0,0.52-0.1,0.71-0.29l39.82-40.03c0.19-0.19,0.29-0.44,0.29-0.7v-65.94c0-0.4-0.24-0.77-0.62-0.92
		c-0.37-0.15-0.8-0.07-1.09,0.22L253.67,399.17z M208.74,319.65h-10.61c-2.18,0-6.98,0.89-10.2,2.91v-14.39
		c3.78,2.08,8.75,3.16,10.72,3.16h10.1c0.55,0,1-0.45,1-1v-11.45c0-2.65-1.68-7.13-3.19-9.93h14.8c-1.69,3.37-3.3,7.86-3.3,10.1
		v11.28c0,0.55,0.45,1,1,1h10.91c2.65,0,7.13-1.68,9.93-3.19v14.8c-3.37-1.69-7.86-3.3-10.1-3.3h-10.74c-0.55,0-1,0.45-1,1v37.78
		c0,1.34,0.33,3.65,1.06,5.99l-4.58-4.6c-0.2-0.2-0.47-0.3-0.75-0.29c-0.27-0.01-0.54,0.09-0.75,0.29l-4.68,4.71
		c0.92-2.71,1.39-5.31,1.39-6.61v-37.27C209.73,320.09,209.29,319.65,208.74,319.65z M172.85,464.07l-37.82-38.03v-63.11
		l37.82,38.03V464.07z M212.74,426.04l-37.82,38.03v-63.11l37.82-38.03V426.04z M252.63,464.07l-37.82-38.03v-63.11l37.82,38.03
		V464.07z M292.53,426.04l-37.82,38.03v-63.11l37.82-38.03V426.04z"/>
	<path d="M420.63,203.35l-0.32-1.24l-1.12,0.61c-10.69,5.78-15.34,2.08-21.77-3.03c-0.42-0.33-0.84-0.67-1.27-1.01l0.18,0.03
		c4.19,0.66,6.42-0.9,7.55-2.32c2.18-2.73,2.14-7.24,1.39-10.19c12.96-1.27,14.36-10.96,13.9-21.3l-0.1-2.3l-1.61,1.64
		c-5.31,5.43-7.89,3.55-11.45,0.93c-1.93-1.41-4.06-2.98-6.82-3.38c2.72-4.54,2.9-9.98,0.34-14.3c-2.61-4.41-7.48-6.65-12.73-5.84
		l-1.1,0.17l0.29,1.07c1.17,4.37,1.03,7.48-0.43,9.49c-2.5,3.46-9.07,3.85-16.67,4.3c-6.93,0.41-14.64,0.86-21.88,3.56
		c1.04-1.52,1.98-3.13,2.9-4.7c3.23-5.51,6.27-10.7,12.69-11.92c1.78-0.34,3.5,0.29,4.37,1.61c1.08,1.62,0.74,4-0.93,6.53
		l-0.87,1.32l1.57,0.22c8.22,1.14,11.99-1.68,13.7-4.25c2.46-3.69,2.09-8.96,0.46-12.7c7.53-1.1,12.63-7.72,13.14-13.69
		c0.44-5.2-2.44-8.99-7.73-10.15l-1.33-0.29l0.13,1.36c0.25,2.66-0.41,4.61-1.73,5.09c-1.16,0.43-2.69-0.36-3.79-1.95
		c-1.88-2.7-4.56-4.48-7.8-5.19c0.6-4.77-0.38-8.56-2.81-10.76c-2.5-2.26-6.29-2.71-11.27-1.35l-1.77,0.48l1.37,1.22
		c1.54,1.38,2.25,3.34,1.72,4.78c-0.44,1.2-1.7,1.89-3.55,1.95c-3.39,0.1-7.1,2.42-9.81,4.84c-2.43-5.2-6.13-8.79-9.42-12
		c-1.57-1.52-3.05-2.96-4.34-4.5c-11.79-11.67-15.49-24.29-9.48-32.24c3.29-3.46,10.92-7.32,15.93-5.8
		c2.69,0.82,4.39,3.13,5.03,6.88c-0.01,1.17-1.7,3.78-4.2,4.59c-2.73,0.89-5.5-0.63-8.01-4.39l-0.68-1.01l-0.86,0.86
		c-5.17,5.2-3.5,10.81-0.51,14.04c3.36,3.62,9.2,5.55,13.95,3.36c-0.92,6,3.02,12.36,7.96,14.96c4.3,2.26,8.38,1.22,10.93-2.77
		l0.45-0.71l-0.62-0.57c-1.84-1.67-2.74-3.14-2.75-4.49c-0.01-2.02,2.06-3.94,4.25-5.98c2.62-2.44,5.53-5.14,6.15-8.89
		c3.72,3.67,8.5,3.39,11.81,1.79c3.67-1.77,5.64-5.11,4.67-7.93l-0.23-0.68l-0.72,0c-6.72,0.02-7.85-2.96-9.43-7.11
		c-0.7-1.85-1.5-3.93-2.91-5.84c-3.73-7.9-11.89-13.33-22.41-14.9c-14.78-2.19-30.39,3.61-40.76,15.15
		c-10.01,12.36-10.79,31.17-5.58,43.26c-2.27-1.5-4.4-2.6-7.15-3.17c-2.89-0.6-5.28-2.6-5.81-4.85c-0.49-2.08,0.59-4.23,3.13-6.23
		l1.13-0.89l-1.23-0.75c-4.34-2.63-9.86-1.35-13.42,3.12c-3.21,4.03-4.35,10.26-0.1,15.58c-2.89,1.44-4.99,4.43-7.02,7.32
		c-2.18,3.1-4.23,6.03-6.8,6.2c-1.91,0.14-4.14-1.22-6.81-4.13l-0.99-1.07l-0.64,1.31c-1.5,3.08-1.96,6.5-1.46,9.68
		c-2.26-1.02-5.11-0.86-7.81,0.47l-0.59,0.29l0.03,0.65c0.1,2.02-1.18,4.2-3.04,5.19c-0.25,0.13-0.5,0.24-0.76,0.32l-0.2-0.94
		c-0.17-1.96,0.81-3.52,2.04-5.48c0.29-0.46,0.58-0.92,0.87-1.41c1.04-0.82,1.57-1.71,1.57-2.69l-0.04-1.12
		c-0.06-1.9,2.67-6.2,6.48-10.23c3.77-3.98,7.53-6.57,9.58-6.61l1.6-0.03l-0.74-1.42c-1.34-2.58-3.58-2.88-5.18-2.75
		c0.16-1.21-0.13-2.3-0.41-3.3c-0.17-0.63-0.34-1.23-0.4-1.86l-0.17-1.66l-1.38,0.93c-0.26,0.18-0.53,0.35-0.81,0.52
		c-1.07,0.67-2.32,1.45-3,2.7c-1.11-1.18-2.76-2.18-5.43-2.45l10.03-10.09V38.8l-23.56,23.69l-18.99-19.09
		c-0.41-1.27-0.61-2.57-0.61-3.36V18.64h6.08c1.32,0,4.38,1.16,6.28,2.24V10.57c-1.29,0.91-4.52,2.24-6.18,2.24h-6.17V6.43
		c0-1.32,1.16-4.38,2.24-6.28h-10.32c0.91,1.29,2.24,4.52,2.24,6.18v6.48h-5.72c-1.25,0-4.64-0.83-6.63-2.24v10.32
		c1.47-1.5,4.83-2.24,6.34-2.24H210v21.1c0,0.67-0.24,1.96-0.68,3.31l-19.19,19.29L166.71,38.8v40.15l9.42,9.47
		c-2.96,0.19-4.74,1.24-5.91,2.49c-0.68-1.25-1.92-2.03-3-2.7c-0.27-0.17-0.54-0.34-0.81-0.52l-1.38-0.93l-0.17,1.66
		c-0.06,0.63-0.23,1.22-0.4,1.86c-0.26,0.94-0.54,1.97-0.43,3.1c-1.24-0.31-2.77-0.52-4.02,0.18c-0.8,0.45-1.33,1.18-1.59,2.19
		l-0.32,1.24l1.28,0.01c4.27,0.02,13.48,10.93,16.18,17.94c-0.29,0.47-0.43,0.95-0.43,1.44c0,1.06,0.65,2.13,1.79,2.96
		c1.4,1.89,2.96,4.01,2.96,6.38c-0.2,0.4-0.3,0.81-0.3,1.22c0,0.06,0,0.12,0.01,0.18c-0.89,0.02-1.74-0.17-2.51-0.58
		c-1.86-0.99-3.14-3.17-3.04-5.19l0.03-0.65l-0.59-0.29c-2.71-1.33-5.55-1.49-7.81-0.47c0.5-3.17,0.03-6.6-1.47-9.68l-0.64-1.31
		l-0.99,1.07c-2.68,2.91-4.91,4.27-6.81,4.13c-2.57-0.17-4.62-3.1-6.8-6.2c-2.03-2.9-4.12-5.88-7.02-7.32
		c4.25-5.32,3.11-11.55-0.1-15.58c-3.56-4.47-9.08-5.75-13.42-3.12l-1.23,0.75l1.13,0.89c2.54,2,3.62,4.15,3.13,6.23
		c-0.53,2.26-2.92,4.25-5.81,4.85c-2.75,0.57-4.88,1.66-7.15,3.17c5.21-12.1,4.43-30.9-5.58-43.26
		c-10.37-11.55-25.98-17.35-40.76-15.15c-10.52,1.57-18.68,6.99-22.41,14.9c-1.41,1.9-2.2,3.99-2.91,5.84
		c-1.59,4.16-2.71,7.13-9.43,7.11l-0.72,0l-0.23,0.68c-0.97,2.82,1,6.16,4.67,7.93c3.31,1.6,8.09,1.88,11.81-1.79
		c0.62,3.76,3.52,6.46,6.15,8.89c2.19,2.04,4.26,3.96,4.25,5.98c-0.01,1.35-0.91,2.82-2.75,4.49l-0.62,0.57l0.45,0.71
		c2.55,3.99,6.63,5.03,10.93,2.77c4.94-2.59,8.88-8.96,7.96-14.96c4.75,2.19,10.59,0.26,13.95-3.36c2.99-3.23,4.66-8.84-0.51-14.04
		l-0.86-0.86l-0.68,1.01c-2.51,3.76-5.28,5.28-8.01,4.39c-2.5-0.81-4.19-3.43-4.2-4.59c0.65-3.75,2.34-6.06,5.03-6.88
		c5.02-1.53,12.64,2.34,15.93,5.8c6,7.95,2.31,20.57-9.48,32.24c-1.29,1.53-2.77,2.97-4.34,4.5c-3.29,3.2-6.99,6.8-9.42,12
		c-2.7-2.42-6.42-4.74-9.81-4.84c-1.85-0.06-3.11-0.75-3.55-1.95c-0.52-1.44,0.18-3.4,1.72-4.78l1.37-1.22l-1.77-0.48
		c-4.98-1.36-8.78-0.9-11.27,1.35c-2.42,2.19-3.41,5.99-2.81,10.76c-3.24,0.71-5.92,2.49-7.8,5.19c-1.11,1.59-2.63,2.37-3.79,1.95
		c-1.32-0.48-1.98-2.43-1.73-5.09l0.13-1.36l-1.33,0.29c-5.28,1.16-8.17,4.96-7.73,10.15c0.51,5.97,5.61,12.59,13.14,13.69
		c-1.63,3.73-2,9.01,0.46,12.7c1.71,2.56,5.47,5.38,13.7,4.25l1.57-0.22l-0.87-1.32c-1.67-2.52-2.01-4.9-0.93-6.53
		c0.87-1.32,2.59-1.95,4.37-1.61c6.42,1.22,9.46,6.42,12.69,11.92c0.92,1.58,1.87,3.18,2.9,4.7c-7.23-2.7-14.95-3.15-21.88-3.56
		c-7.6-0.45-14.17-0.83-16.67-4.3c-1.45-2.01-1.59-5.12-0.43-9.49l0.29-1.07l-1.1-0.17c-5.25-0.81-10.12,1.43-12.73,5.84
		c-2.55,4.32-2.38,9.76,0.34,14.3c-2.76,0.4-4.9,1.97-6.82,3.38c-3.56,2.61-6.14,4.5-11.45-0.93l-1.61-1.64l-0.1,2.3
		c-0.46,10.34,0.94,20.03,13.9,21.3c-0.76,2.95-0.79,7.46,1.39,10.19c1.13,1.42,3.37,2.98,7.55,2.32l0.18-0.03
		c-0.43,0.34-0.85,0.67-1.27,1.01c-6.43,5.11-11.08,8.81-21.77,3.03l-1.12-0.61l-0.32,1.24c-2,7.81,0.84,13.55,8.43,17.05
		c-12.16,19.91-13.03,42.69-2.5,65.95c0.6,9.31,3.71,17.07,9.51,23.7c7.21,8.24,10.54,15.87,8.7,19.9c-1.06,2.32-3.8,3.48-8.19,3.46
		l-1.22-0.01l0.24,1.2c0.91,4.61,3.06,7.77,6.04,8.9c1.78,0.67,4.59,0.91,8.26-1.43c0.65,2.38,2.19,5,4.61,6.28
		c2.12,1.13,3.29,4.06,2.59,6.54c-0.35,1.24-1.45,3.27-4.96,3.07l-2.81-0.17l2.08,1.9c6.12,5.57,11.81,5.06,15.5,3.65
		c6.64-2.54,12.12-10.13,13.33-18.31c0.25,0.04,0.5,0.09,0.76,0.13c5.64,0.98,12.03,2.09,15.89-8.92l0.55-1.56l-1.63,0.24
		c-9.52,1.41-10.3-1.99-11.28-6.29c-0.18-0.77-0.36-1.56-0.6-2.33c1.42-0.2,2.97-0.38,4.58-0.57c4.77-0.56,10.18-1.19,15.15-2.66
		c5.25-1.55,12.65-0.9,17.34,4.03c3.05,3.21,5.88,9.36,2.03,20.36c-3.25,7.58-8.25,9.54-11.76,8.12c-3.91-1.58-6.28-7.4-3.24-15.48
		l0.46-1.21l-1.29-0.13c-4.9-0.49-9.91,2.87-11.91,8c-1.68,4.32-0.81,8.72,2.32,12.23c-13.18-1.23-27.02,3.85-36.03,13.4
		c-8.73,9.27-11.82,21.66-8.71,34.86c1.79,8.97,5.43,14.16,8.08,17.95c3.09,4.41,4.64,6.63,1.6,11.16l-0.54,0.8l0.78,0.56
		c4.27,3.07,9.08,2.19,11.96-0.04c2.35-1.82,3.52-4.42,3.33-7.15c2.55,1.08,5.61,0.47,8.38-0.09c2.79-0.56,5.42-1.09,6.92,0.19
		c1.31,1.12,1.9,3.74,1.74,7.78l-0.06,1.63l1.48-0.69c7.47-3.47,10.81-10.69,8.95-19.33c-1.5-6.97-6.58-14.19-12.84-15.43
		c4.64-7.29,1.77-14.51-2.03-17.5c-3.26-2.57-7.03-2.32-9.38,0.62l-0.48,0.6l0.46,0.62c2.1,2.83,2.44,5.36,0.96,7.13
		c-1.83,2.19-6.01,2.82-8.95,1.36c-2.7-1.35-3.75-4.1-2.96-7.77c7.24-8.65,14.69-9.06,30.7-7.63c-0.52,4.6,1.04,9.2,4.21,12.22
		c3.11,2.97,7.38,4,12.03,2.92l1.62-0.38l-1.1-1.25c-3.93-4.48-1.63-7.34,3.96-13.39c5.89-6.38,13.95-15.12,13.98-30.96l0.01-1.84
		c0.06-14.77,0.13-34.86-16.25-45.95c2.76-2.35,4.11-7.69,3.45-11.83c-0.69-4.35-3.35-6.95-7.31-7.14l-0.86-0.04l-0.16,0.85
		c-0.56,2.9-1.54,4.74-2.99,5.62c-2.45,1.48-6.4,0.3-10.98-1.06c-4.59-1.37-9.73-2.91-15.08-2.38c1.28-4.14,2.92-6.76,4.86-7.78
		c2.2-1.16,4.72-0.27,7.15,0.59l1.77,0.62l-0.1-1.51c-0.36-5.51-3.75-9.93-8.62-11.26c-3.47-0.95-6.9-0.11-9.41,2.19
		c-0.77-5.35-3.62-8.22-5.77-10.39c-2.98-3-4.48-4.51,0.52-10.3l0.61-0.71l-0.67-0.66c-4.95-4.84-9.26-4.3-12-2.99
		c-5.31,2.53-8.52,9.53-8.81,14.03c-8.93-2.25-14.9,1.84-16.73,6.83c-1.54,4.2,0.06,8.27,3.91,9.9l0.79,0.33l0.45-0.73
		c1.93-3.11,4.1-4.41,6.29-3.77c2.15,0.63,3.73,3,3.7,4.69c-0.04,2.66-1.14,5.09-2.92,6.5c-1.89,1.49-4.45,1.89-7.63,1.21
		c-4.52-2.17-7.32-5.71-8.35-10.52c-2.22-10.44,4.35-24.73,10.24-32.62c0.81,4.5,4.28,7.92,7.69,8.77c3.66,0.91,6.92-0.95,8.72-4.97
		l0.48-1.07l-1.13-0.3c-2.06-0.54-2.22-1.54-2.21-2.7c0.09-8.39,17.03-16.03,32.1-17.46c-1.7,2.12-2.76,4.67-3.72,6.99
		c-2.21,5.32-3.81,9.16-11.01,7.39l-0.94-0.23l-0.26,0.93c-0.93,3.32-0.16,6.45,2.13,8.57c3.03,2.81,8.1,3.39,13.72,1.6
		c0.06,0.2,0.12,0.4,0.18,0.59c0.71,2.34,1.38,4.55,2.22,6.19c1.39,2.72,1.8,4.71,1.24,6.08c-0.42,1.05-1.49,1.85-3.25,2.44
		l-0.94,0.32l0.32,0.94c1.23,3.65,6.2,6.11,11.08,5.47c2.81-0.36,9.27-2.35,10.5-12.78c3.62,1.38,8.99,1.34,12.62-1.2
		c2.05-1.44,4.32-4.22,3.49-9.34l-0.18-1.11l-1.08,0.31c-3.09,0.88-5.93,0.34-7.78-1.49c-1.46-1.43-2.06-3.48-1.56-5.35
		c0.62-2.34,2.78-4.1,6.07-4.97l0.24-0.1c9.24-5.26,20.13-7.94,30.67-10.54c10.34-2.55,20.98-5.17,30.08-10.25
		c2.04,0.16,4.11-0.43,6-1.74c1.13,5.6,3.18,8.76,6.05,10.88c-0.34,0.92-0.52,1.91-0.52,2.95c0,4.29,3.17,7.85,7.28,8.47
		c0.27,5.12,0.08,11.61-3.83,12.09c-5.75,0.63-8.35-5.49-9.94-11.17c2.52-1.46,4.22-4.19,4.22-7.3l-1,0l1-0.01
		c0-2.25-0.88-4.37-2.47-5.96c-1.59-1.59-3.71-2.46-5.95-2.46c0,0,0,0-0.01,0c-2.25,0-4.37,0.88-5.96,2.47
		c-1.59,1.59-2.47,3.71-2.46,5.97c0,4.28,3.21,7.82,7.35,8.35c0.02,0.3,0.05,0.61,0.08,0.94c0.43,4.65,0.48,8.88-3.4,9.57
		c-0.04,0-0.09,0-0.13,0c-3.57,0-5.22-3.27-7.12-7.04c-0.42-0.83-0.85-1.67-1.3-2.49c2.12-1.43,3.52-3.85,3.52-6.59v-0.01
		c0-4.37-3.56-7.92-7.93-7.92c0,0,0,0-0.01,0c-4.37,0-7.92,3.56-7.92,7.95c0,4.17,3.24,7.58,7.32,7.89c1.7,4.48,2.12,7.99,1.16,9.66
		c-0.38,0.66-0.97,1.03-1.87,1.17c-4.55,0.77-7.84-5.59-8.97-8.72c0.1-0.09,0.19-0.18,0.29-0.27c1.45-1.45,2.25-3.38,2.24-5.43
		v-0.01c0-4.23-3.44-7.67-7.67-7.67c0,0-0.01,0-0.01,0c-4.23,0-7.67,3.45-7.67,7.69c0,2.05,0.8,3.98,2.25,5.42
		c1.41,1.41,3.27,2.2,5.25,2.24c1.29,5.54,3.14,8.9,5.67,10.25c0.06,0.07,0.07,0.11,0.07,0.11c0,0-0.01,0.04-0.06,0.11
		c-1.29,0.56-2.09,1.62-2.16,2.87c-0.06,1.13,0.5,2.23,1.5,3.05c-0.53,0.97-0.69,2.36-0.42,3.97c0.07,0.41,0.37,2,1.13,3.05
		c-0.85,1.09-1.12,2.56-0.65,3.85h-18.22v191.59c0,11.11,2.26,22.54,19.02,23.13l55.99,1.97c8.4,0.3,15.83,8.86,17.58,11.95
		l0.45,0.79l0.43-0.8c1.73-3.26,11.98-11.76,16.88-11.93l56.55-1.97c12.8-0.45,19.02-8.01,19.02-23.13V357.27
		c1.74,12.11,8.46,19.39,13.55,24.9c5.58,6.05,7.88,8.91,3.96,13.39l-1.1,1.25l1.62,0.38c4.65,1.09,8.92,0.05,12.03-2.92
		c3.16-3.02,4.73-7.62,4.21-12.22c16.01-1.44,23.46-1.02,30.7,7.63c0.79,3.67-0.26,6.42-2.96,7.77c-2.94,1.46-7.12,0.83-8.95-1.36
		c-1.48-1.77-1.14-4.3,0.96-7.13l0.46-0.62l-0.48-0.6c-2.35-2.94-6.12-3.19-9.38-0.62c-3.8,2.99-6.67,10.21-2.03,17.5
		c-6.26,1.24-11.34,8.46-12.84,15.43c-1.86,8.64,1.49,15.87,8.95,19.33l1.48,0.69l-0.06-1.63c-0.16-4.04,0.43-6.66,1.74-7.78
		c1.5-1.28,4.13-0.75,6.92-0.19c2.77,0.56,5.83,1.17,8.38,0.09c-0.19,2.73,0.98,5.33,3.33,7.15c2.87,2.23,7.69,3.11,11.96,0.04
		l0.78-0.56l-0.54-0.8c-3.05-4.54-1.49-6.75,1.6-11.16c2.66-3.79,6.29-8.98,8.08-17.95c3.11-13.2,0.02-25.59-8.71-34.86
		c-9-9.55-22.84-14.64-36.03-13.4c3.12-3.51,4-7.9,2.32-12.23c-2-5.13-7.01-8.49-11.91-8l-1.29,0.13l0.46,1.21
		c3.04,8.08,0.67,13.9-3.24,15.48c-3.51,1.42-8.51-0.55-11.76-8.12c-3.85-11-1.02-17.15,2.03-20.36c4.69-4.93,12.09-5.58,17.34-4.03
		c4.97,1.46,10.38,2.1,15.15,2.66c1.62,0.19,3.16,0.37,4.58,0.57c-0.24,0.77-0.42,1.56-0.6,2.33c-0.98,4.3-1.76,7.69-11.28,6.29
		l-1.63-0.24l0.55,1.56c3.86,11.01,10.25,9.9,15.89,8.92c0.25-0.04,0.5-0.09,0.76-0.13c1.21,8.18,6.69,15.78,13.33,18.31
		c3.7,1.41,9.39,1.92,15.5-3.65l2.08-1.9l-2.81,0.17c-3.52,0.2-4.62-1.84-4.96-3.07c-0.7-2.48,0.47-5.41,2.59-6.54
		c2.42-1.28,3.96-3.9,4.61-6.28c3.67,2.34,6.48,2.1,8.26,1.43c2.98-1.13,5.13-4.29,6.04-8.9l0.24-1.2l-1.22,0.01
		c-4.39,0.02-7.13-1.14-8.19-3.46c-1.85-4.03,1.49-11.66,8.7-19.9c5.8-6.63,8.91-14.38,9.51-23.7c10.53-23.26,9.66-46.04-2.5-65.95
		C419.79,216.9,422.63,211.16,420.63,203.35z M250.35,121.92c2.25-0.95,4.53-0.91,6.17,0.13c0.37,0.23,0.7,0.52,0.99,0.84
		c0.35,0.93,0.79,1.82,1.33,2.65c0.16,0.69,0.24,1.44,0.23,2.26c-0.12,2.53-1.4,4.54-3.81,5.98c-0.12,0.07-0.24,0.14-0.37,0.2
		c-3.11-1.87-6.29-3.68-9.56-5.29c0.35-0.13,0.65-0.27,0.91-0.4C248.59,127.04,250.21,124.5,250.35,121.92z M274.2,130.06
		c-0.49,4.56,0.81,8.31,3.74,10.68c3.44,2.78,8.7,3.16,13.73,0.99l1.43-0.62l-1.17-1.04c-2.33-2.08-3.2-4.46-2.4-6.54
		c0.66-1.71,2.35-2.87,4.12-2.83c1.62,0.01,3.94,1.28,5.26,3.67c1.34,2.43,1.14,5.28-0.55,8.01c-3.79,6.1-17.42,6.17-28.61,0.16
		c-2.68-1.44-5.56-3.23-8.6-5.12c-1.29-0.8-2.64-1.64-4.04-2.49c2.37-1.7,3.72-4.03,3.92-6.79
		C264.41,131.1,269.09,131.78,274.2,130.06z M295.73,154.2c0.2-0.03,0.39-0.07,0.59-0.12c8.09-1.58,11.19,1.53,13.7,4.03
		c1.94,1.94,3.63,3.63,6.84,2.06c0.35,1.98-0.1,3.59-1.32,4.66c-1.96,1.73-5.74,2-9.21,0.66l-0.42,0.9
		c4.65,2.5,6.82,9.52,5.64,14.13c-0.4,1.56-1.52,4.09-4.67,4.45c1.39-3.21,0.95-6.61-1.2-8.86c-2.27-2.37-5.8-2.75-9.45-1.02
		c-2.06,0.98-4.6,0.88-7.15-0.27c-3.09-1.4-5.52-4.07-6.33-6.95l-0.98,0.18c0.1,0.98,0.44,2.13,0.8,3.34
		c0.71,2.39,1.52,5.1,0.37,6.62c-0.66,0.88-1.99,1.36-3.94,1.43c1.53-6.14-2.5-9.18-7.56-13c-4.57-3.45-10.24-7.74-13.69-15.77
		c0.1-1.87-0.12-3.64-0.57-5.19c-1.48-5.11-5.36-8.78-10.44-10.18c-2.49-2.32-5.25-4.4-8.27-6.24c-0.7-0.71-1.48-1.37-2.34-1.98
		c3.33,1.01,4.71,2.06,5.22,2.58l0.39,0.4l0.55-0.12c0.68-0.16,1.18-0.47,1.53-0.86c3.83,1.81,7.53,3.94,11.15,6.12
		c0.9,1.01,0.12,1.17,5.13,3.91c3.17,1.73,5.97,3.71,8.71,5.18c7.65,4.11,16.21,5.5,22.63,4.25c4.17-0.52,7.52-2.4,9.3-5.31
		c1.65-2.68,1.81-6.04,0.48-9.57c2.9,1.56,3.95,4.29,3.41,8.69c-0.82,6.64-5.42,9.99-8.6,10.76c-0.17,0.03-0.33,0.07-0.5,0.11
		L295.73,154.2z M235.78,193.58c0.31,0,0.69,0.03,1.07,0.06c0.72,0.07,0.92,0.69,0.97,1.19c0.02,0.23,0.01,0.49-0.04,0.77
		l-0.01,0.05c-0.23,1.25-1.15,2.81-2.94,3.56c0-0.95-0.02-1.76-0.04-2.45c-0.04-1.66-0.07-2.76,0.22-3.03
		C235.13,193.62,235.42,193.58,235.78,193.58z M235,192.59l0.01,0.07c-0.27,0.06-0.5,0.17-0.69,0.35c-0.06,0.06-0.11,0.12-0.16,0.18
		l0-0.47l-0.85,0.86c-0.82,0.84-1.43,1.34-1.88,1.72c-0.58,0.48-0.94,0.8-1.17,1.24l-0.78,0.64c-0.73,0.6-1.3,1.02-1.75,1.35
		c-0.78,0.58-1.22,0.92-1.46,1.41l0-0.17l-0.81,0.66c-0.69,0.57-1.23,0.97-1.65,1.29c-0.67,0.5-1.09,0.83-1.34,1.2l0-0.04
		l-0.77,0.54c-0.71,0.49-1.26,0.84-1.7,1.12c-0.87,0.56-1.33,0.88-1.57,1.31l0-0.41l-0.77,0.5c-1.02,0.66-1.79,1.03-2.36,1.3
		c-0.7,0.33-1.15,0.6-1.43,0.98c-0.15-0.3-0.45-0.5-0.8-0.5h-1.56c-0.41,0-0.76,0.29-0.87,0.67c-0.26-0.48-0.73-0.77-1.54-1.15
		c-0.56-0.27-1.34-0.64-2.36-1.3l-0.77-0.5l0,0.41c-0.24-0.43-0.7-0.75-1.57-1.31c-0.44-0.28-0.99-0.63-1.7-1.12l-0.77-0.54l0,0.04
		c-0.25-0.37-0.66-0.7-1.34-1.2c-0.42-0.32-0.96-0.72-1.65-1.29l-0.81-0.66l0,0.18c-0.24-0.47-0.68-0.84-1.46-1.41
		c-0.44-0.33-1.01-0.75-1.75-1.35l-0.78-0.64c-0.23-0.44-0.59-0.76-1.17-1.24c-0.45-0.37-1.07-0.88-1.88-1.72l-0.85-0.86l0,0.47
		c-0.05-0.06-0.1-0.12-0.16-0.18c-0.24-0.22-0.53-0.34-0.9-0.39l0.01-0.03c1.57-8.08,0.12-15.27-4.7-23.31l-0.41-0.69l-0.76,0.26
		c-1.8,0.61-3-0.04-3.87-1.21c0.29,0.08,0.6,0.12,0.92,0.12c1.89,0,3.43-1.49,3.43-3.31c0-1.27-0.78-2.45-1.98-2.99l-2.2-1.04
		c-3.75-4.57-3.88-7.91-3.56-10.32c0.33-2.59,1.64-7.01,6.57-8.76c0.05,0.09,0.11,0.18,0.19,0.25c0.08,0.07,2.21,1.95,5.86,4.16
		c-3.22,2.18-5.61,5.82-5.81,11.39c-0.2,5.41,3.08,11.4,7.71,14.27c-0.01,0.14-0.02,0.28-0.02,0.43c0,2.16,1.85,3.92,4.13,3.92
		c2.3,0,4.16-1.76,4.16-3.92c0-1.44-0.83-2.76-2.11-3.4l-3.14-1.93c-3.25-2.96-4.33-7.05-2.9-10.97c1.03-2.81,3.19-4.97,5.76-5.93
		c3.43,1.36,7.39,2.49,11.72,2.96c-1.78,6.24-2.09,14.01,0.54,18.99c-0.47,0.62-0.7,1.43-0.7,2.45c0,2.16,1.87,3.92,4.16,3.92
		c2.3,0,4.17-1.76,4.17-3.96c0-0.76,0-1.67-0.52-2.43c2.13-4.62,2.32-12.15,0.53-18.91c3.64-0.36,7.44-1.26,11.35-2.88
		c2.05,0.93,3.71,2.76,4.61,5.22c1.25,3.41,1.06,8.43-3.21,12.32l-1.81,1.12c-1.34,0.68-2.18,2-2.18,3.44
		c0,2.16,1.87,3.92,4.17,3.92c2.28,0,4.13-1.76,4.13-3.92c0-0.15-0.01-0.29-0.02-0.43c4.63-2.87,7.9-8.86,7.71-14.27
		c-0.21-5.6-2.62-9.26-5.86-11.43c1.81-1.19,3.63-2.54,5.46-4.1c0.11-0.09,0.19-0.21,0.25-0.33c5.34,1.57,7.44,5.77,7.13,9.37
		c-0.47,5.38-1.72,7.48-3.72,10.09l-2.07,0.71c-1.24,0.55-2.04,1.72-2.04,2.99c0,1.82,1.57,3.3,3.49,3.3c0.33,0,0.65-0.05,0.95-0.13
		c-0.87,1.18-2.07,1.85-3.89,1.24l-0.76-0.26l-0.41,0.69C234.87,177.29,233.42,184.48,235,192.59z M230.86,201.58l0.01-0.65
		c0.03-3.89,0.03-3.89,1.21-4.86c0.3-0.25,0.67-0.55,1.12-0.97c0.01,0.36,0.01,0.69,0.02,1.01
		C233.28,200.4,233.29,200.73,230.86,201.58z M226.99,202.86c-0.01-2.52-0.01-2.52,1.35-3.52c0.28-0.2,0.6-0.44,0.99-0.74
		c0,0.3,0.01,0.59,0.02,0.86c0.08,3.92,0.08,4.22-2.35,4.96C226.99,203.81,226.99,203.3,226.99,202.86z M223.11,205.64
		c-0.02-2.13-0.02-2.13,1.31-3.13c0.25-0.19,0.55-0.41,0.89-0.68c0.01,0.38,0.02,0.74,0.03,1.07c0.09,3.28,0.11,3.65-2.22,4.32
		C223.12,206.6,223.12,206.08,223.11,205.64z M219.25,209.54c0-0.68-0.02-1.23-0.03-1.67c-0.05-1.62-0.05-1.62,1.33-2.5
		c0.27-0.17,0.59-0.38,0.96-0.62c0.01,0.29,0.01,0.55,0.02,0.81C221.62,208.65,221.63,208.93,219.25,209.54z M214.58,211.45l-0.01,0
		c-0.18-2.68-0.1-2.72,1.18-3.33c0.44-0.21,1-0.48,1.71-0.89c0,0.37,0.01,0.7,0.02,1C217.53,210.83,217.53,210.83,214.58,211.45z
		 M213,208.7v3.81h-1.37v-3.81H213z M209.88,211.45l-0.01,0c-2.95-0.63-2.95-0.63-2.89-3.22c0.01-0.3,0.01-0.63,0.02-1
		c0.7,0.41,1.27,0.68,1.71,0.89C209.98,208.73,210.06,208.77,209.88,211.45z M205.22,207.87c-0.01,0.44-0.03,0.99-0.03,1.67
		c-2.38-0.61-2.37-0.89-2.29-3.99c0.01-0.25,0.01-0.52,0.02-0.81c0.37,0.25,0.69,0.45,0.96,0.62
		C205.27,206.25,205.27,206.25,205.22,207.87z M201.33,207.22c-2.33-0.67-2.32-1.04-2.22-4.32c0.01-0.33,0.02-0.69,0.03-1.07
		c0.34,0.27,0.64,0.49,0.89,0.68c1.33,1,1.33,1,1.31,3.13C201.33,206.08,201.32,206.6,201.33,207.22z M197.46,204.41
		c-2.44-0.74-2.43-1.04-2.35-4.96c0.01-0.27,0.01-0.56,0.02-0.86c0.38,0.3,0.71,0.54,0.99,0.74c1.36,1,1.36,1,1.35,3.52
		C197.46,203.3,197.45,203.81,197.46,204.41z M193.59,201.58c-2.43-0.85-2.43-1.18-2.35-5.47c0-0.32,0.01-0.65,0.02-1.01
		c0.45,0.42,0.82,0.72,1.12,0.97c1.18,0.97,1.18,0.97,1.21,4.86L193.59,201.58z M186.62,194.83c0.04-0.51,0.25-1.12,0.96-1.19
		c0.39-0.03,0.77-0.06,1.08-0.06c0.37,0,0.65,0.04,0.77,0.15c0.29,0.27,0.26,1.37,0.22,3.03c-0.02,0.69-0.04,1.5-0.04,2.45
		C187.39,198.28,186.51,196.13,186.62,194.83z M168.92,146.03c0.41-1.42,1.05-2.71,1.86-3.86c0.18-0.24,0.36-0.47,0.54-0.7
		c2.61-3.16,6.72-4.96,11.44-4.81l0.5,0.02l0.89,0.59c0.39-0.58,1.07-0.93,1.81-0.93c1.17,0,2.13,0.85,2.13,1.89
		c0,1.04-0.96,1.89-2.13,1.89c-0.66,0-1.27-0.27-1.68-0.74l-0.4-0.47l-0.6,0.15c-7.26,1.8-8.84,8.14-9.18,10.78
		c-0.37,2.84-0.23,6.77,4.15,12.02l0.14,0.17l2.61,1.24c0.5,0.23,0.83,0.69,0.83,1.18c0,0.73-0.64,1.32-1.44,1.32
		c-0.79,0-1.44-0.59-1.44-1.32h-1.07l-0.21-0.13C168.82,159.08,167.42,151.2,168.92,146.03z M143.38,179.44
		c-1.96-0.07-3.28-0.55-3.94-1.43c-1.14-1.52-0.34-4.23,0.37-6.62c0.36-1.22,0.7-2.36,0.8-3.34l-0.98-0.18
		c-0.81,2.88-3.24,5.55-6.33,6.95c-2.55,1.16-5.09,1.25-7.15,0.27c-3.64-1.74-7.18-1.36-9.45,1.02c-2.15,2.24-2.59,5.65-1.2,8.86
		c-3.15-0.36-4.27-2.89-4.67-4.45c-1.17-4.61,0.99-11.63,5.64-14.13l-0.42-0.9c-3.46,1.34-7.25,1.07-9.21-0.66
		c-1.22-1.07-1.67-2.67-1.32-4.66c3.21,1.56,4.9-0.12,6.84-2.06c2.51-2.51,5.61-5.61,13.7-4.03c0.2,0.05,0.4,0.09,0.59,0.12
		l0.19-0.98c-0.17-0.04-0.34-0.07-0.5-0.11c-3.18-0.78-7.77-4.12-8.6-10.76c-0.54-4.39,0.51-7.13,3.41-8.69
		c-1.33,3.53-1.17,6.9,0.48,9.57c1.79,2.91,5.14,4.79,9.3,5.31c6.42,1.25,14.98-0.14,22.63-4.25c2.74-1.47,5.53-3.45,8.71-5.18
		c5.01-2.73,4.24-2.89,5.13-3.91c4.05-2.44,8.21-4.82,12.54-6.77c0.34,0.65,0.95,1.2,1.92,1.41l0.58,0.13
		c-2.95,1.92-5.63,4.09-8.04,6.5c-3.57,1.83-6.24,4.96-7.41,9c-0.1,0.34-0.18,0.68-0.26,1.04c-0.7,1.23-1.36,2.49-1.96,3.8
		c-3.44,8.27-9.21,12.62-13.84,16.13C145.88,170.26,141.84,173.3,143.38,179.44z M130.72,141.73c5.03,2.17,10.29,1.79,13.73-0.99
		c2.93-2.37,4.24-6.12,3.74-10.68c5.11,1.72,9.78,1.04,13.15-1.94c0.19,2.77,1.55,5.09,3.92,6.79c-1.4,0.85-2.75,1.69-4.04,2.49
		c-3.04,1.89-5.91,3.68-8.6,5.12c-11.18,6.01-24.82,5.93-28.61-0.16c-1.7-2.73-1.89-5.57-0.55-8.01c1.32-2.39,3.64-3.65,5.26-3.67
		c1.77-0.04,3.46,1.12,4.12,2.83c0.8,2.08-0.07,4.47-2.4,6.54l-1.17,1.04L130.72,141.73z M240.49,131.53
		c1.52,1.05,2.96,2.16,4.32,3.34c-0.88-0.14-1.78-0.21-2.71-0.22C241.67,133.55,241.13,132.51,240.49,131.53z M228.36,125.5
		c5.94,1.9,9.8,5.02,11.69,9.41c-0.59-0.29-1.26-0.45-1.95-0.45c-2.32,0-4.2,1.74-4.2,3.87c0,1.79,1.32,3.29,3.11,3.73
		c-1.23,0.93-2.45,1.78-3.67,2.55c-1.79-0.82-3.73-1.29-5.64-1.44c-0.75-1.15-2.08-1.87-3.53-1.87c-2.3,0-4.17,1.76-4.17,3.92
		c0,2.05,1.68,3.74,3.81,3.91c-2.62,0.85-5.17,1.37-7.65,1.63c0.37-0.6,0.58-1.28,0.58-2c0-2.16-1.87-3.92-4.16-3.92
		c-2.28,0-4.13,1.76-4.13,3.92c0,0.62,0.15,1.21,0.43,1.75c-0.03,0.09-0.06,0.18-0.09,0.27c-2.94-0.28-5.7-0.89-8.24-1.68
		c1.99-0.29,3.52-1.92,3.52-3.87c0-2.16-1.87-3.92-4.17-3.92c-1.45,0-2.77,0.72-3.53,1.87c-1.95,0.16-3.94,0.64-5.76,1.5
		c-1.6-0.94-2.93-1.85-3.97-2.61c1.95-0.31,3.44-1.9,3.44-3.83c0-2.14-1.85-3.88-4.12-3.88c-0.61,0-1.19,0.13-1.72,0.36
		c2.04-4.57,6.28-7.74,12.81-9.57c3.86-0.33,8.75-0.54,14.95-0.54C218.93,124.6,224.26,124.96,228.36,125.5z M231.38,171.26
		c0.07,0.18,0.1,0.36,0.1,0.58c0,1.06-0.96,1.93-2.14,1.93c-1.2,0-2.17-0.87-2.17-1.93c0-0.7,0.41-1.32,1.16-1.7l1.96-1.21
		l0.14-0.11c4.18-3.76,5.68-9.47,3.81-14.55c-1.59-4.33-5.18-7.09-9.36-7.21l-0.12,0l-0.12,0.02c-0.2,0.04-0.34,0.07-0.48,0.07
		c-1.2,0-2.17-0.87-2.17-1.93c0-1.06,0.97-1.93,2.17-1.93c0.88,0,1.67,0.48,2.01,1.24l0.25,0.56l0.61,0.03
		c2.75,0.14,11.74,1.43,12.13,12.08c0.18,4.88-3.04,10.51-7.32,12.83l-0.76,0.41L231.38,171.26z M214.08,172.53
		c0.29,0.21,0.31,0.56,0.31,1.49c0,1.06-0.97,1.93-2.17,1.93c-1.2,0-2.17-0.87-2.17-1.93c0-0.96,0.27-1.29,0.53-1.49l0.74-0.55
		l-0.48-0.78c-3.08-4.97-2.27-14.24,0.05-20.43l0.19-0.5l-0.06-0.08l0.01-0.03l-0.26-0.36c-0.23-0.31-0.34-0.66-0.34-1.04
		c0-1.06,0.96-1.93,2.14-1.93c1.2,0,2.17,0.87,2.17,1.93c0,0.51-0.2,0.97-0.59,1.33l-0.47,0.44l0.21,0.61
		c2.35,6.99,2.31,15.63-0.09,20.11l-0.41,0.76L214.08,172.53z M192.37,168.05l3.44,2.13c0.68,0.34,1.08,0.96,1.08,1.66
		c0,1.06-0.97,1.93-2.17,1.93c-1.18,0-2.14-0.87-2.14-1.93c0-0.22,0.03-0.41,0.1-0.58l0.3-0.81l-0.76-0.41
		c-4.28-2.32-7.5-7.95-7.32-12.83c0.39-10.65,9.39-11.94,12.13-12.08l0.61-0.03l0.25-0.56c0.33-0.75,1.12-1.24,2.01-1.24
		c1.2,0,2.17,0.87,2.17,1.93c0,1.06-0.97,1.93-2.17,1.93c-0.14,0-0.29-0.02-0.48-0.07l-0.12-0.02l-0.12,0
		c-4.5,0.13-8.65,3.25-10.31,7.78C187.13,159.59,188.44,164.52,192.37,168.05z M182.09,134.66c-1.82,0.01-3.54,0.28-5.15,0.78
		c2.59-2.32,5.46-4.4,8.61-6.21C184.04,130.81,182.89,132.61,182.09,134.66z M182.79,129.76l0.21-0.49c0.39-0.88,1.8-2.06,6.11-3.01
		C186.89,127.31,184.78,128.48,182.79,129.76z M246.52,164.32l-0.18,0.11h-1.05c0,0.72-0.67,1.31-1.5,1.31
		c-0.83,0-1.5-0.59-1.5-1.31c0-0.48,0.33-0.94,0.77-1.13l2.56-0.87l0.18-0.24c2.59-3.35,3.83-5.79,4.31-11.37
		c0.38-4.44-2.36-9.99-9.3-11.66l-0.58-0.14l-0.4,0.45c-0.42,0.47-1.05,0.74-1.75,0.74c-1.22,0-2.21-0.84-2.21-1.88
		s0.99-1.88,2.21-1.88c0.78,0,1.49,0.35,1.89,0.93l1.04-0.71l0.43-0.01c0.18-0.01,0.36-0.01,0.53-0.01c6.45,0,11.64,3.64,13.3,9.37
		C256.77,151.2,255.38,159.08,246.52,164.32z M247.87,93.37c-0.01,0.44-0.03,0.91,0.04,1.39c-2.18,0.23-3.61,2.4-4.3,3.47
		l-0.85,1.28l1.52,0.25c0.67,0.11,1.26,0.37,1.88,0.65c0.06,0.03,0.12,0.05,0.17,0.08c-0.67,0.54-1.17,1.16-1.75,1.89
		c-0.32,0.4-0.67,0.84-1.11,1.33l-1.24,1.41l1.87,0.24c1.15,0.14,2.32,0.02,3.56-0.11c0.63-0.07,1.31-0.14,2.03-0.18
		c-2.43,2.18-6.92,4-11.01,2.89c-2.09-0.57-2.63-3.24-2.67-5.89l11.44-11.51C247.92,91.67,247.9,92.54,247.87,93.37z M235.24,89.74
		c0.69,0,1.35,0.29,1.84,0.8c0.51,0.53,0.79,1.24,0.78,2v0c0,0.76-0.28,1.47-0.78,2c-0.99,1.04-2.7,1.04-3.69,0
		c-0.51-0.53-0.79-1.24-0.78-2c0-0.76,0.28-1.47,0.78-2C233.89,90.03,234.55,89.74,235.24,89.74z M257,43.63v34.5l-20.55,20.66
		v-1.61c0.78-0.22,1.49-0.64,2.07-1.25c0.86-0.9,1.34-2.1,1.34-3.37c0-1.27-0.47-2.47-1.34-3.37c-0.58-0.61-1.3-1.03-2.07-1.25
		V64.29L257,43.63z M234.41,87.83c-0.93,0.17-1.78,0.63-2.46,1.34c-0.86,0.9-1.34,2.1-1.34,3.37c0,1.27,0.47,2.47,1.34,3.37
		c0.16,0.16,0.33,0.31,0.5,0.45l-0.15,0.33c-1.4,3.04-3.75,8.11-9.93,7.82c-3.55-0.17-5.84-3.2-6.77-6.87
		c1.03,1.16,2.52,2.16,4.78,2.1l0.73-0.02l0.2-0.7c0.52-1.8,0.95-3.66,0.37-5.27c1.25-0.58,2.2-1.73,2.94-2.63
		c0.2-0.25,0.4-0.49,0.59-0.69l0.9-1l-1.23-0.57c-0.36-0.17-0.74-0.4-1.13-0.65c-0.31-0.2-0.65-0.41-1-0.59
		c0.71-0.76,1.14-1.72,1.19-2.77l0.03-0.5l-0.39-0.32c-1.78-1.48-3.19-1.61-4.3-1.35c0.75-1.53,1.13-3.33,1.07-5.15l-0.04-1l-1,0.04
		c-1.32,0.05-2.56,0.4-3.57,0.97c-0.17-1.4-0.58-2.86-1.87-4.19V46.38h2.73l17.81,17.91V87.83z M205.11,82.68
		c-1.04-0.21-2.35-0.09-4.09,0.99l-0.95,0.59l0.7,0.87c0.15,0.19,0.33,0.51,0.51,0.86c0.24,0.44,0.51,0.95,0.87,1.43
		c-0.49,0.22-0.94,0.51-1.36,0.77c-0.39,0.25-0.77,0.48-1.13,0.65l-1.54,0.71l1.35,0.98l-6.87,6.91c-0.12-0.26-0.24-0.52-0.35-0.76
		l-0.09-0.2c0.23-0.17,0.46-0.36,0.66-0.57c0.86-0.9,1.34-2.1,1.34-3.37c0-1.27-0.47-2.47-1.34-3.37c-0.46-0.48-0.99-0.84-1.57-1.08
		V64.06l17.58-17.68h2.73v26.18c-2.05,1.57-2.56,3.37-2.76,5.08c-1.16-0.52-2.53-0.66-3.72-0.71l-1-0.04l-0.04,1
		C203.98,79.65,204.33,81.25,205.11,82.68z M203.24,99.02l0.16,0.55l0.55,0.14c2.53,0.65,3.93-0.87,5.09-2.45
		c-0.79,3.76-3,7.06-6.86,7.25c-4.61,0.23-7.08-2.52-8.61-5.19l7.3-7.34c0.56,0.64,1.2,1.32,2.02,1.74
		C202.28,95.34,202.71,97.21,203.24,99.02z M189.53,89.74c0.69,0,1.35,0.29,1.84,0.8c0.51,0.53,0.79,1.24,0.78,2v0
		c0,0.76-0.28,1.47-0.78,2c-0.99,1.04-2.7,1.04-3.69,0c-0.51-0.53-0.79-1.24-0.79-2c0-0.76,0.28-1.47,0.79-2
		C188.18,90.03,188.84,89.74,189.53,89.74z M188.23,97.15l0.05,0.42c0.01,0.08,0.02,0.17,0.03,0.26l-1.21-1.22
		C187.45,96.84,187.83,97.02,188.23,97.15z M168.7,43.63l20.32,20.43v23.72c-1.05,0.12-2.02,0.6-2.77,1.39
		c-0.86,0.9-1.34,2.1-1.34,3.37c0,0.95,0.27,1.87,0.76,2.64L168.7,78.13V43.63z M188.54,100.9c0.1,2.97-0.27,6.41-2.66,7.06
		c-4.14,1.12-8.47-0.49-10.85-2.54c0.41,0.03,0.81,0.08,1.21,0.12c1.5,0.16,2.92,0.32,4.43-0.22l1.38-0.5l-0.97-1.1
		c-0.57-0.65-0.95-1.2-1.29-1.69c-0.44-0.64-0.83-1.2-1.44-1.7c0.11-0.08,0.22-0.17,0.33-0.25c0.53-0.41,1.02-0.79,1.65-0.9
		l1.52-0.25l-0.85-1.28c-0.7-1.06-2.13-3.23-4.3-3.47c0.07-0.48,0.06-0.95,0.04-1.39c-0.03-0.88-0.05-1.79,0.49-2.97l0.09-0.2
		L188.54,100.9z M178.45,118.02l-0.1-0.15l-0.15-0.1c-0.78-0.53-1.06-1.08-1.06-1.41c0-0.22,0.17-0.47,0.31-0.64l0.37-0.44
		l-0.19-0.54c-2.09-5.93-10.53-17.52-16.61-19.47c0.92-0.48,2.63,0.05,3.56,0.33c0.29,0.09,0.53,0.16,0.7,0.2l2.08,0.46l-0.98-1.89
		c-0.64-1.23-0.35-2.27,0-3.58c0.06-0.21,0.12-0.43,0.17-0.65c1.47,0.94,2.28,1.64,2.14,3.11l-0.44,4.79l2.31-4.22
		c0.88-1.62,2-2.81,4.31-3.26c-0.18,0.88-0.16,1.63-0.14,2.27c0.03,0.96,0.02,1.41-0.43,1.93l-2.79,3.23l3.93-1.66
		c0.95-0.39,1.83-0.29,3.14,1.36c-0.44,0.24-0.81,0.53-1.14,0.79c-0.64,0.5-1,0.75-1.44,0.69l-0.46,1.93
		c1.53,0.5,1.86,0.98,2.58,2.03c0.11,0.17,0.24,0.35,0.38,0.54c-0.63,0.01-1.31-0.06-2.07-0.14c-1.07-0.12-2.28-0.25-3.7-0.17
		l-1.66,0.1l0.87,1.42c2.21,3.61,8.69,6.54,14.44,4.98c3.8-1.03,4.28-5.69,4.12-9.36l0.72-1.01v-0.3c1.68,3.31,4.68,7.61,11.03,7.3
		c5.36-0.26,9.1-5.41,9.08-12.51l-0.01-2.34l-1.68,1.62c-0.74,0.72-1.34,1.55-1.87,2.28c-1.09,1.52-1.77,2.33-2.82,2.3
		c-0.51-1.9-0.61-3.21,0.15-4.1l1.31-1.55l-2.03-0.09c-0.84-0.04-1.53-0.84-2.27-1.7c-0.13-0.15-0.27-0.31-0.4-0.46
		c0.04-0.02,0.07-0.04,0.11-0.07c0.99-0.62,1.66-1,2.33-0.85c0.09,0.03,0.18,0.06,0.27,0.09l0.64-1.89c-0.1-0.04-0.19-0.07-0.29-0.1
		c-0.82-0.34-1.3-1.23-1.77-2.09c-0.03-0.05-0.06-0.11-0.09-0.16c1.32-0.58,2.07-0.22,2.99,0.21c0.6,0.29,1.28,0.61,2.1,0.61
		l2.68,0.01l-2.03-1.76c-1.6-1.39-2.47-3.02-2.64-4.97c1.12,0.12,2.24,0.4,2.82,1.11l1.58,1.95l0.23-3.01
		c0.12-1.69,0.22-3.18,1.6-4.49c1.38,1.32,1.48,2.8,1.6,4.49l0.23,3.01l1.58-1.95c0.63-0.78,1.67-1.23,2.65-1.43
		c-0.17,2.13-1.07,4.09-2.47,5.28l-2.06,1.76l2.71-0.01c0.81,0,1.5-0.34,2.1-0.64c1.03-0.51,1.8-0.9,3.26,0.15
		c-0.22,0.84-0.91,1.52-1.89,1.87c-0.17,0.04-0.35,0.09-0.53,0.16l0.61,1.9c0.14-0.04,0.28-0.08,0.42-0.12
		c0.63-0.09,1.28,0.28,2.22,0.87c0.08,0.05,0.15,0.1,0.23,0.14c-0.82,0.99-1.74,2.04-2.79,2.08l-2.03,0.09l1.31,1.55
		c0.74,0.88,0.66,2.14,0.19,3.96c-2-0.25-2.93-1.82-3.76-3.23c-0.34-0.57-0.63-1.07-0.99-1.44l-1.71-1.8l-0.01,2.49
		c-0.01,5.93,2.84,12.46,9.14,12.77c7.2,0.34,10.09-5.2,11.64-8.54l0.31,0.13c-0.37,3.63-0.79,10.51,3.94,11.79
		c6,1.63,12.52-1.98,14.55-5.29l0.87-1.42l-1.66-0.1c-1.73-0.1-3.18,0.06-4.47,0.2c-0.38,0.04-0.75,0.08-1.1,0.11
		c0.93-1.15,1.5-1.77,3.18-2.31l-0.46-1.93c-0.66,0.1-1.29-0.18-2.09-0.54c-0.28-0.13-0.58-0.26-0.89-0.38
		c1.27-1.57,2.15-1.67,3.07-1.28l3.93,1.66l-2.79-3.23c-0.45-0.52-0.46-0.97-0.43-1.93c0.02-0.65,0.04-1.39-0.14-2.27
		c2.31,0.45,3.42,1.64,4.31,3.26l2.31,4.22l-0.44-4.79c-0.14-1.47,0.67-2.17,2.14-3.12c0.06,0.22,0.12,0.44,0.17,0.65
		c0.36,1.31,0.64,2.35,0.01,3.58l-0.98,1.89l2.24-0.5c1.29-0.29,2.58-0.42,3.58,0.36c-3.64,1.23-7.87,5.46-9.23,6.9
		c-3.3,3.49-7.13,8.63-7.03,11.66l0.04,1.09c0,0.31-0.34,0.74-0.93,1.18l-0.17,0.12l-0.1,0.18c-0.31,0.53-0.63,1.04-0.93,1.53
		c-1.33,2.12-2.59,4.13-2.34,6.79l0.2,0.94c-0.32-0.02-0.64-0.06-0.97-0.13c-0.93-0.4-1.88-0.77-2.83-1.13
		c-0.47-0.19-0.97-0.36-1.5-0.53c-0.14-0.05-0.28-0.1-0.41-0.15l-0.01,0.02c-5.5-1.68-13.99-2.57-24.86-2.57
		c-14.76,0-22.41,1.14-26.44,2.58l-0.02-0.03c-0.16,0.06-0.33,0.12-0.49,0.18c-1.14,0.39-2.27,0.81-3.38,1.27
		c0.02-0.04,0.04-0.07,0.06-0.11l0.14-0.22l0.01-0.26C182.02,122.82,180.06,120.18,178.45,118.02z M165.88,122.06
		c1.64-1.04,3.91-1.08,6.17-0.13c0.14,2.57,1.75,5.12,4.1,6.36c0.26,0.14,0.57,0.28,0.91,0.4c-3.27,1.61-6.45,3.43-9.56,5.29
		c-0.13-0.06-0.25-0.13-0.37-0.2c-2.41-1.44-3.69-3.45-3.8-5.98c-0.01-0.81,0.07-1.57,0.23-2.26c0.54-0.83,0.98-1.72,1.33-2.65
		C165.18,122.57,165.51,122.29,165.88,122.06z M96.39,239.19c-0.68,2.56,0.12,5.35,2.09,7.28c2.14,2.11,5.23,2.91,8.59,2.25
		c0.19,2.76-0.75,4.88-2.79,6.32c-3.37,2.36-8.85,2.15-11.85,0.47l-1.38-0.77l-0.11,1.57c-0.48,7.19-3.72,11.69-8.9,12.36
		c-3.42,0.45-7.11-1.04-8.52-3.27c1.74-0.77,2.86-1.82,3.42-3.18c0.79-1.94,0.36-4.48-1.32-7.74c-0.75-1.47-1.4-3.6-2.08-5.85
		c-0.16-0.52-0.32-1.05-0.48-1.58l-0.31-1l-0.98,0.36c-5.29,1.92-10.03,1.6-12.68-0.85c-1.54-1.43-2.16-3.41-1.78-5.66
		c8.05,1.54,10.23-3.7,12.34-8.78c1.25-3.01,2.55-6.12,5.07-8.16l2.38-1.92l-3.05,0.14c-17.19,0.81-36.5,9.37-36.61,19.62
		c-0.01,1.37,0.26,3.21,2.54,4.24c-1.42,2.47-3.5,3.49-5.93,2.88c-3.3-0.82-6.66-4.65-6.33-9.42l0.2-2.99l-1.95,2.27
		c-6.66,7.75-14.87,24.14-12.28,36.33c1.16,5.48,4.38,9.51,9.54,11.95l0.21,0.07c4.79,1.06,7.76-0.26,9.41-1.57
		c2.25-1.77,3.63-4.78,3.68-8.03c0.04-2.46-2.01-5.72-5.13-6.64c-1.7-0.5-4.94-0.62-8.05,3.87c-2.63-1.55-2.97-4.55-2.08-7.01
		c1.6-4.36,7.16-7.86,15.56-5.24l1.43,0.45l-0.14-1.49c-0.35-3.68,2.79-11.12,7.68-13.45c2.94-1.41,5.99-0.74,9.08,1.99
		c-5.39,6.64-2.8,9.26,0.19,12.27c2.46,2.48,5.25,5.3,5.38,11.45l0.07,3.11l1.76-2.57c2.02-2.96,5.42-4.22,8.87-3.28
		c3.59,0.98,6.2,4.01,6.96,7.93c-2.4-0.8-5.01-1.4-7.56-0.06c-2.71,1.43-4.77,4.86-6.28,10.48l-0.41,1.51l1.54-0.27
		c5.44-0.96,10.9,0.67,15.72,2.11c5.03,1.5,9.37,2.8,12.58,0.86c1.79-1.08,3.01-3.07,3.72-6.05c3.16,0.54,4.25,3.17,4.6,5.37
		c0.68,4.28-1.19,9.61-3.7,10.56l-1.9,0.72l1.73,1.06c16.78,10.3,16.7,30.42,16.65,45.12l-0.01,1.84
		c-0.02,15.07-7.78,23.47-13.45,29.61c-4.78,5.18-8.64,9.36-5.04,14.71c-4.2,0.51-6.98-1.13-8.63-2.7
		c-2.89-2.75-4.25-7.26-3.46-11.49l0.2-1.07l-1.09-0.1c-15.82-1.46-25.18-1.79-33.63,8.43l-0.15,0.18L49.52,389
		c-1.09,4.7,0.35,8.43,3.96,10.23c3.75,1.87,8.96,1.01,11.37-1.87c0.95-1.14,2.73-4.21-0.41-8.92c1.92-1.82,4.36-1.12,6.09,0.24
		c3.17,2.49,6.15,9.08,0.68,16.13l-1.23,1.59l2.01,0.02c5.35,0.06,11.04,6.35,12.69,14.04c0.75,3.48,1.53,11.76-6.4,16.35
		c-0.05-3.84-0.84-6.3-2.47-7.68c-2.23-1.9-5.47-1.25-8.6-0.62c-3.45,0.69-6.7,1.35-8.79-0.92l-3.6-3.92l1.94,4.96
		c1.3,3.33-0.23,6.06-2.09,7.51c-2.12,1.64-5.56,2.35-8.78,0.5c3.03-5.15,0.83-8.3-2.16-12.56c-2.7-3.85-6.05-8.64-7.77-17.23
		c-2.96-12.56-0.04-24.3,8.21-33.07c9.28-9.86,23.97-14.72,37.42-12.38l4.11,0.71l-3.34-2.49c-6.14-4.58-4.89-10-4.07-12.11
		c1.5-3.85,4.96-6.52,8.56-6.76c-2.74,8.6,0.24,14.87,4.82,16.71c4.41,1.78,10.56-0.37,14.36-9.25c4.2-12.02,0.99-18.85-2.45-22.46
		c-4.56-4.8-12.34-6.64-19.35-4.57c-4.81,1.42-10.13,2.04-14.82,2.59c-2.11,0.25-4.09,0.48-5.86,0.77l-1.26,0.2l0.51,1.18
		c0.41,0.96,0.66,2.04,0.92,3.18c0.97,4.22,2.05,8.97,11.85,8.02c-3.27,7.8-7.84,7-13.08,6.09c-0.6-0.11-1.21-0.21-1.81-0.3
		l-1.03-0.16l-0.11,1.04c-0.8,7.87-5.93,15.31-12.18,17.7c-3.89,1.48-7.86,0.88-11.58-1.75c2.2-0.56,3.78-2.06,4.4-4.3
		c0.95-3.39-0.62-7.27-3.58-8.84c-2.49-1.32-3.67-4.51-3.86-6.32l-0.18-1.77l-1.41,1.08c-2.84,2.16-5.48,2.87-7.64,2.06
		c-2.08-0.79-3.66-2.99-4.52-6.26c5.59-0.27,7.85-2.61,8.76-4.6c2.24-4.9-1.04-12.94-9.01-22.04c-5.54-6.33-8.49-13.75-9.04-22.69
		l-0.01-0.18l-0.08-0.17c-10.49-23.07-9.49-45.62,2.91-65.22l0.63-1l-1.1-0.45c-7-2.88-9.83-7.45-8.61-13.95
		c11.06,5.5,16.51,1.16,22.79-3.83c4.58-3.64,9.78-7.77,18.32-9.31l-0.17-1.98c-1.41-0.01-3.05-0.27-4.78-0.54
		c-3.98-0.63-8.49-1.35-11.51,1.02c-1.7,1.33-2.71,3.43-3.08,6.4c-2.22,0.21-3.88-0.37-4.93-1.69c-2.08-2.61-1.46-7.54-0.68-9.48
		l0.52-1.29l-1.39-0.07c-10.94-0.57-13.47-7.19-13.36-17.13c5.54,4.65,9.03,2.09,12.41-0.39c2.17-1.59,4.42-3.22,7.42-3.08
		l2.17,0.12l-1.32-1.72c-3.24-4.21-3.71-9.42-1.24-13.59c2.03-3.44,5.58-5.25,9.62-5c-1.01,4.42-0.67,7.72,1.02,10.05
		c3.06,4.23,10.06,4.64,18.17,5.12c7.91,0.47,16.87,0.99,24.73,4.93l4.8,2.4l-3.62-3.97c-1.96-2.14-3.55-4.87-5.1-7.51
		c-3.31-5.65-6.73-11.49-14.04-12.87c-2.57-0.49-5.08,0.48-6.4,2.46c-1.33,1.99-1.27,4.62,0.12,7.36c-4.91,0.4-8.45-0.82-10.27-3.54
		c-2.47-3.7-1.32-9.21,0.29-11.94l0.84-1.43l-1.65-0.08c-7.27-0.33-12.28-6.49-12.75-12.01c-0.32-3.73,1.45-6.47,4.9-7.68
		c0.04,2.92,1.15,5.02,3.08,5.73c2.06,0.75,4.46-0.3,6.12-2.68c1.77-2.54,4.27-4.06,7.44-4.54l1-0.15l-0.17-1
		c-0.44-2.62-0.75-7.4,2.03-9.92c1.71-1.54,4.33-1.98,7.81-1.29c-1.27,1.76-1.71,3.87-1.07,5.62c0.73,1.99,2.68,3.18,5.36,3.26
		c2.69,0.08,6.42,2.14,9.5,5.25l1.07,1.07l0.57-1.4c2.24-5.54,5.95-9.15,9.54-12.65c1.6-1.56,3.12-3.03,4.41-4.58
		c12.51-12.37,16.27-26.05,9.57-34.84l-0.07-0.08c-3.55-3.76-12-8.2-18-6.37c-2.4,0.73-5.47,2.8-6.43,8.53l-0.01,0.13
		c-0.08,2.2,2.33,5.57,5.58,6.62c1.97,0.64,5.72,0.88,9.55-4.15c4.05,4.91,0.81,9.16-0.34,10.39c-3.3,3.56-9.4,5.22-13.5,1.72
		l-3.21-2.74l1.64,3.89c2.32,5.5-1.42,12.47-6.31,15.04c-1.84,0.97-5.22,2-7.85-1.41c1.85-1.84,2.75-3.6,2.76-5.35
		c0.02-2.9-2.37-5.11-4.89-7.45c-3.05-2.83-6.2-5.75-5.54-10.09l0.7-4.63l-2.53,3.94c-3.14,4.9-7.94,4.87-11.09,3.35
		c-2.39-1.15-3.89-3.13-3.78-4.83c7.38-0.23,8.96-4.37,10.49-8.39c0.7-1.83,1.42-3.73,2.7-5.43l0.11-0.18
		c3.42-7.34,11.05-12.39,20.94-13.86c14.12-2.1,29.06,3.46,38.95,14.47c10.53,13.01,10.31,33.56,3.5,44.6l-2.64,4.29l4.08-2.96
		c4.02-2.91,6.27-4.46,9.72-5.18c3.68-0.76,6.63-3.32,7.35-6.35c0.35-1.48,0.4-4.27-2.67-7.24c3.66-1.41,7.35,0.5,9.57,3.28
		c2.89,3.63,3.79,9.38-0.74,14.05l-1.15,1.18l1.58,0.47c2.98,0.88,5.2,4.04,7.35,7.11c2.46,3.5,4.78,6.81,8.3,7.04
		c2.25,0.14,4.67-1.05,7.35-3.67c1.13,3.11,1.14,6.54,0.13,9.47c-0.63,0.79-1.09,1.73-1.39,2.8c-0.32,0.47-0.68,0.92-1.07,1.33
		c-3.18,3.33-7.9,3.88-13.29,1.56l-1.74-0.75l0.37,1.86c0.91,4.58-0.08,8.3-2.77,10.48c-2.56,2.07-6.4,2.5-10.29,1.24
		c2.95-3.35,2.28-6.38,1.8-7.62c-0.95-2.46-3.34-4.11-5.95-4.11c-0.01,0-0.03,0-0.04,0c-2.1,0.02-4.37,1.27-5.97,3.2l-0.82,0.31
		c-5.51,2.12-5.59,6.87-5.17,10.26c0.61,4.92,3.17,8.34,6.07,10.2c-6.15-0.25-9,2.56-11.17,4.73c-2.05,2.05-3.29,3.29-6.23,1.58
		l-0.57-0.33l-0.16,0.64c-0.84,3.36,0.35,5.27,1.49,6.28c1.72,1.52,4.63,2.07,7.62,1.56c-3.51,3.42-5.01,9.45-3.95,13.63
		c0.85,3.33,3.18,5.24,6.41,5.24c0.02,0,0.03,0,0.05,0l0.82,0l-0.39-0.73c-1.61-3.04-1.35-6.37,0.67-8.47
		c1.96-2.05,5.06-2.35,8.3-0.81c2.33,1.11,5.17,1.01,7.99-0.26c1.95-0.88,3.65-2.23,4.91-3.82c-0.7,2.4-1.28,4.98,0.02,6.71
		c0.95,1.26,2.7,1.83,5.4,1.84l0.67,0l-0.19-0.64c-1.79-5.91,1.91-8.7,7.03-12.57c4.73-3.57,10.62-8.02,14.16-16.52
		c0.23-0.5,0.47-0.99,0.72-1.48c-0.19,5.4,2.27,11.96,9.94,16.62c1.53,4.04,3.82,5.74,6.84,5.1c4.17,7.18,5.44,13.41,4.2,20.57
		c-1.19,0.18-3.03,0.54-3.18,2.75l-0.01,0.11l0.17,1.07c-4.52,0.44-6.32-1.2-8.38-3.09c-1.15-1.05-2.33-2.13-3.98-2.84
		c-3.7-1.71-8-1.48-11.24,0.59c-3.35,2.15-5.18,5.97-5.17,10.78c0.01,3.41,1.03,6.53,2.78,8.86c-2.19,0.43-4.35,0.64-6.38,0.64
		c-4.82,0-8.9-1.18-10.96-3.44c-1.92-2.11-2.09-5.01-0.52-8.65l0.26-0.6l-0.65-0.09c-0.49-0.07-0.98-0.1-1.47-0.1
		c-3.34,0-6.7,1.49-8.55,3.88c-1.49,1.93-1.89,4.29-1.15,6.72c-2.09-0.47-4.11-0.71-6-0.71c-4.27,0-7.93,1.19-10.51,3.5
		c-2.64,2.36-3.86,5.71-3.36,9.17l0.18,1.25l0.72-1.04c1.35-1.94,5.82-4.11,10.3-4.23c0.14,0,0.29-0.01,0.44-0.01
		c1.88,0,4.22,0.4,5.84,2c-4.88,1.58-21.31,7.41-23.72,15.06C98.26,234.65,96.83,237.53,96.39,239.19z M26.88,198.2l0.03-0.39
		c0.23-2.82,1.02-4.72,2.41-5.81c1.17-0.92,2.72-1.22,4.45-1.22c1.62,0,3.41,0.27,5.17,0.55C33.9,193.06,30.16,195.65,26.88,198.2z
		 M160.43,213.92c-0.99,0.52-1.99,1.02-2.99,1.5c-7.18,2.93-14.98,4.86-22.63,6.74c-1.48,0.36-2.96,0.73-4.44,1.1
		c-0.69,0.12-1.39,0.25-2.11,0.37c-8.27,1.4-17.6,4.91-23.31,7.93c3.36-4.93,13.18-9.52,21.99-12.37l1.89-0.61l-1.41-1.39
		c-1.97-1.94-4.72-2.34-6.68-2.34c-0.16,0-0.32,0-0.47,0.01c-3.7,0.1-7.79,1.58-10.08,3.49c0.06-2.49,1.13-4.81,3.07-6.55
		c2.33-2.09,5.69-3.2,9.71-3.2c1.82,0,3.75,0.23,5.74,0.68l2.02,0.46l-0.6-1.98c-0.63-2.07-0.3-4.02,0.95-5.64
		c1.6-2.07,4.58-3.41,7.6-3.41c0.13,0,0.27,0,0.4,0.01c-1.68,4.58-0.37,7.43,1.1,9.04c2.22,2.44,6.54,3.84,11.85,3.84
		c2.36,0,4.8-0.27,7.26-0.79c0.85,0.89,1.83,1.63,2.92,2.16C161.59,213.29,161.01,213.61,160.43,213.92z M173.04,210.13l-0.29-1.85
		l-1.37,1.27c-2.5,2.3-5.34,2.93-8.01,1.77c-3.44-1.5-5.76-5.69-5.78-10.43c-0.01-4.1,1.5-7.33,4.25-9.1
		c2.67-1.71,6.25-1.89,9.35-0.45c1.37,0.59,2.38,1.51,3.45,2.49c2.26,2.07,4.83,4.41,11.02,3.46l0.48-0.07
		c0.68,1.39,2,2.66,3.83,3.17l0.57,0.16c0.42,1.07,1.36,1.51,3.39,2.2l0.3,0.1c0.3,1.49,1.19,2,3.58,2.7l0.35,0.1
		c0.24,1.48,1.07,2.03,3.53,2.7l0.35,0.09c0.31,1.18,1.2,1.64,3.53,2.21l0.6,0.15c0.36,0.89,1.27,1.15,3.48,1.62l0.97,0.21
		c0.03,0.48,0.42,0.87,0.9,0.87h1.56c0.49,0,0.89-0.4,0.9-0.91l0.8-0.17c2.21-0.47,3.12-0.72,3.48-1.62l0.6-0.15
		c2.33-0.57,3.22-1.03,3.53-2.21l0.35-0.09c2.46-0.67,3.28-1.22,3.53-2.7l0.35-0.1c2.39-0.7,3.28-1.21,3.58-2.7l0.3-0.1
		c2.03-0.69,2.97-1.13,3.39-2.2l0.57-0.16c1.81-0.51,3.12-1.77,3.81-3.14l0.25,0.04c6.2,0.95,8.76-1.4,11.02-3.46
		c1.07-0.98,2.08-1.9,3.53-2.53c2.53-1.39,6.11-1.2,8.92,0.47c3.04,1.81,4.71,5.04,4.69,9.15c0.11,3.68-1.39,6.61-3.34,8.48
		c-0.01,0-0.02-0.01-0.04-0.01c-0.08,0.09-0.15,0.17-0.23,0.26c-0.8,0.71-1.67,1.25-2.53,1.59c-2.77,1.1-5.54,0.41-7.61-1.91
		l-1.31-1.47l-0.41,1.93c-0.92,4.34-2.91,7.61-6.01,9.86c-1.59-1.49-3.65-2.31-5.84-2.31c0,0,0,0-0.01,0
		c-4.73,0-8.57,3.84-8.58,8.57v0.01c0,1.21,0.25,2.36,0.71,3.41c-2.3,2.67-6.66,3.15-11.23,3.65c-1.81,0.2-3.55,0.39-5.16,0.72
		c0-0.04-0.01-0.09-0.01-0.13c-0.01-0.15-0.02-0.28-0.02-0.41c1.06-0.45,2.03-1.1,2.87-1.94c1.71-1.71,2.65-3.99,2.65-6.41l-1,0
		l1-0.01c0-2.42-0.95-4.7-2.66-6.41c-1.71-1.71-3.98-2.65-6.4-2.65c0,0,0,0-0.01,0c-2.42,0-4.7,0.95-6.41,2.66
		c-1.71,1.71-2.65,3.99-2.65,6.42c0,4.15,2.81,7.65,6.62,8.72c0,0.01,0,0.03,0,0.04c0,0.03,0,0.07-0.01,0.1
		c-1.55-0.32-3.19-0.51-4.8-0.7c-4.43-0.51-8.65-1-10.82-3.87c0.4-0.99,0.62-2.07,0.62-3.2l-1,0l1-0.01c0-2.29-0.9-4.44-2.52-6.06
		c-1.62-1.62-3.77-2.51-6.06-2.51c0,0,0,0-0.01,0c-2.98,0-5.6,1.53-7.14,3.84C175.67,219.09,173.95,215.92,173.04,210.13z
		 M284.28,198.72c0.13-0.01,0.27-0.01,0.4-0.01c3.01,0,6,1.34,7.6,3.41c1.25,1.62,1.58,3.57,0.95,5.64l-0.6,1.98l2.02-0.46
		c1.99-0.45,3.92-0.68,5.74-0.68c4.02,0,7.38,1.11,9.71,3.2c1.93,1.73,3.01,4.06,3.07,6.55c-2.29-1.92-6.38-3.39-10.08-3.49
		c-0.15,0-0.31-0.01-0.47-0.01c-1.96,0-4.72,0.41-6.68,2.34l-1.41,1.39l1.89,0.61c8.8,2.85,18.63,7.44,21.99,12.37
		c-5.71-3.01-15.04-6.52-23.31-7.93c-2.07-0.35-4.01-0.71-5.86-1.07c-0.55-0.13-1.09-0.27-1.64-0.4
		c-5.38-1.32-10.85-2.67-16.12-4.38c-2.99-1.13-5.78-2.4-8.56-3.86c-0.52-0.27-1.04-0.56-1.56-0.85c1.23-0.5,2.34-1.23,3.31-2.14
		c2.27,0.45,4.51,0.67,6.68,0.67c5.31,0,9.63-1.4,11.85-3.84C284.65,206.15,285.96,203.3,284.28,198.72z M192.41,230.99
		c2.78,2.96,7.42,3.5,11.63,3.98c1.71,0.2,3.36,0.39,4.86,0.72c-0.56,4.58-2.39,9.59-9.03,9.72c-5.77-0.03-8.95-3.88-10.02-12.1
		C190.86,232.71,191.73,231.92,192.41,230.99z M211.53,231.89C211.53,231.89,211.52,231.89,211.53,231.89
		c-3.9,0-7.07-3.17-7.07-7.08c0-1.89,0.73-3.66,2.07-5c1.33-1.34,3.11-2.07,5-2.07c0,0,0,0,0.01,0c1.89,0,3.66,0.73,4.99,2.07
		c1.34,1.33,2.07,3.11,2.07,5v0.01v0c0,1.89-0.73,3.66-2.07,5C215.19,231.15,213.42,231.89,211.53,231.89z M234.36,232.89
		c-1.1,8.38-4.39,12.48-10.05,12.51c-6.65-0.14-8.49-5.12-9.05-9.7c1.58-0.34,3.36-0.54,5.2-0.74c4.37-0.48,9.17-1.01,12.06-3.84
		C233.05,231.8,233.67,232.4,234.36,232.89z M239.36,232.51C239.36,232.51,239.35,232.51,239.36,232.51c-3.64,0-6.59-2.96-6.59-6.59
		l-1,0l1-0.01c0-3.63,2.96-6.58,6.58-6.58c0,0,0,0,0.01,0c1.76,0,3.41,0.69,4.66,1.93c1.24,1.24,1.93,2.9,1.92,4.67
		c0,1.76-0.69,3.41-1.93,4.65C242.77,231.83,241.11,232.51,239.36,232.51z M178.9,225.92c0-3.63,2.95-6.59,6.58-6.59c0,0,0,0,0.01,0
		c1.76,0,3.41,0.68,4.65,1.92c1.25,1.24,1.93,2.9,1.93,4.65v0.01v0c0,3.63-2.95,6.59-6.58,6.59c0,0,0,0-0.01,0
		C181.86,232.51,178.9,229.56,178.9,225.92z M159.77,228.03c0-1.72,0.67-3.33,1.88-4.55s2.83-1.89,4.55-1.89c0,0,0,0,0,0
		c1.72,0,3.33,0.67,4.55,1.88c1.22,1.21,1.89,2.83,1.89,4.55v0.01v0c0,2.76-1.74,5.12-4.19,6.04l-1.77,0.38
		c-0.16,0.01-0.31,0.02-0.47,0.02c0,0,0,0,0,0C162.66,234.47,159.77,231.59,159.77,228.03z M142.91,230.78
		c0-3.27,2.66-5.94,5.93-5.94c0,0,0,0,0,0c1.58,0,3.07,0.62,4.19,1.73c1.12,1.12,1.74,2.61,1.74,4.19v0.01v0
		c0,3.27-2.66,5.93-5.93,5.94c0,0,0,0,0,0C145.58,236.72,142.92,234.06,142.91,230.78z M127.74,235.1c0-1.52,0.59-2.94,1.66-4.02
		c1.07-1.07,2.5-1.66,4.01-1.67c0,0,0,0,0.01,0c1.52,0,2.94,0.59,4.01,1.66c1.07,1.07,1.66,2.5,1.67,4.01v0.01v0
		c0,1.52-0.59,2.94-1.66,4.02c-0.32,0.32-0.68,0.6-1.05,0.83l-1.1,0.52c-0.59,0.21-1.22,0.31-1.86,0.31c0,0,0,0,0,0
		c-1.51,0-2.94-0.59-4.01-1.66C128.33,238.05,127.74,236.63,127.74,235.1z M140.21,269.37c-0.27-0.72-0.08-1.78,0.82-2.41l1.87-1.23
		l-2.13-0.53c-0.32-0.2-1.05-1.75-1.05-3.53c0-0.94,0.22-1.65,0.59-1.88l1.48-0.95l-1.58-0.78c-0.93-0.46-1.48-1.16-1.45-1.83
		c0.03-0.52,0.43-0.96,1.12-1.21l0.22-0.08l0.16-0.17c0.95-1.02,0.95-2.26-0.02-3.24l-0.12-0.12l-0.15-0.07
		c-1.97-0.96-3.55-3.87-4.7-8.64l0.77-0.36c0.28-0.1,0.56-0.22,0.83-0.36c1.62,4.22,5.5,10.45,10.98,9.52
		c1.47-0.22,2.6-0.96,3.28-2.14c1.53-2.66,0.53-7.09-0.77-10.69l1.17-0.29c0.43,0.77,0.84,1.59,1.25,2.39
		c1.96,3.89,4.22,8.28,9.16,8.13l0.13-0.01c6.11-1.01,5.47-7.98,5.13-11.73c-0.02-0.26-0.05-0.5-0.07-0.74
		c0.49-0.05,0.97-0.15,1.43-0.29c1.28,4.63,4.17,13.22,12.03,12.35c5.95-0.73,5.85-9.52,5.62-13.85l1.79-0.23
		c0.58,4.12,2.48,12.94,11.9,13c6.85-0.14,10.61-4.66,11.17-13.43l2.06,0c0.55,8.77,4.31,13.29,11.19,13.43
		c6.52-0.04,10.52-4.5,11.9-13.27l1.5,0.46c-0.4,8.69,1.57,13.36,5.89,13.89c7.89,0.86,10.75-7.78,12.02-12.4l1.42,0.31
		c-0.02,0.24-0.04,0.49-0.07,0.75c-0.34,3.75-0.98,10.72,5.13,11.73l0.13,0.01c4.97,0.15,7.31-4.43,9.36-8.49
		c0.41-0.81,0.8-1.58,1.2-2.31l1.06,0.42c-1.32,3.62-2.37,8.14-0.82,10.83c0.68,1.18,1.81,1.92,3.26,2.14
		c5.47,0.92,9.34-5.25,10.97-9.46c0.5,0.32,1.03,0.59,1.59,0.78c-1.15,4.7-2.72,7.57-4.67,8.52l-0.15,0.07l-0.12,0.12
		c-0.96,0.98-0.97,2.22-0.02,3.24l0.16,0.17l0.22,0.08c0.68,0.25,1.09,0.69,1.12,1.21c0.04,0.67-0.52,1.37-1.45,1.83l-1.58,0.78
		l1.48,0.95c0.37,0.24,0.59,0.94,0.59,1.89c0,1.78-0.73,3.33-0.98,3.51l-2.13,0.53l1.8,1.26c0.9,0.63,1.09,1.69,0.82,2.4
		c-0.11,0.3-0.3,0.52-0.55,0.67h-2.79c-25.04-3.43-47.14-3.43-68.53-3.43c-21.4,0-43.51,0-68.53,3.43h-2.79
		C140.51,269.89,140.32,269.67,140.21,269.37z M258.64,234.47C258.64,234.47,258.64,234.47,258.64,234.47
		c-3.55,0-6.44-2.89-6.43-6.44l-1,0l1-0.01c0-3.55,2.89-6.43,6.43-6.43c0,0,0,0,0,0c3.55,0,6.43,2.89,6.43,6.45
		C265.07,231.59,262.19,234.47,258.64,234.47z M276,236.72C276,236.72,275.99,236.72,276,236.72c-1.59,0-3.08-0.62-4.2-1.74
		c-1.12-1.12-1.74-2.61-1.73-4.2v-0.01c0-1.59,0.62-3.07,1.74-4.19c1.12-1.12,2.61-1.73,4.19-1.73c0,0,0,0,0,0
		c3.27,0,5.93,2.67,5.93,5.95C281.93,234.06,279.27,236.72,276,236.72z M290.26,241.13l-2.39-1.14c-0.16-0.13-0.31-0.26-0.46-0.41
		c-1.07-1.07-1.66-2.5-1.66-4.02v-0.01c0-1.52,0.59-2.94,1.67-4.01c1.07-1.07,2.5-1.66,4.01-1.66c0,0,0,0,0,0
		c1.52,0,2.94,0.59,4.01,1.67c1.07,1.07,1.66,2.5,1.66,4.03c0,1.52-0.59,2.94-1.67,4.01c-1.07,1.07-2.5,1.66-4.01,1.66c0,0,0,0,0,0
		C291.03,241.25,290.64,241.21,290.26,241.13z M262.11,270.04H162.05c17.68-1.43,34.06-1.44,50.03-1.44S244.43,268.61,262.11,270.04
		z M305.03,461.64c0,14.67-5.74,21.71-18.05,22.14l-56.55,1.97c-4.96,0.17-14.58,7.9-17.28,11.75c-2.8-4.33-10.25-11.48-17.99-11.75
		l-55.99-1.97c-15.87-0.56-18.05-10.97-18.05-22.14v-190.6h17.8c0.74,0.9,1.93,1.35,3.32,1.2c3.2-0.45,6.35-0.85,9.45-1.2h120.81
		c3.11,0.35,6.26,0.75,9.45,1.2l0.03,0c0.18,0.02,0.35,0.03,0.52,0.03c1.15,0,2.13-0.44,2.78-1.23h19.77V461.64z M285.83,270.04
		c0.47-1.29,0.2-2.76-0.65-3.85c0.76-1.05,1.07-2.63,1.13-3.05c0.27-1.61,0.11-3-0.42-3.97c1-0.82,1.56-1.92,1.5-3.05
		c-0.07-1.25-0.87-2.31-2.16-2.87c-0.05-0.07-0.06-0.11-0.06-0.11c0,0,0.01-0.04,0.07-0.12c2.45-1.31,4.28-4.53,5.56-9.81
		c0.2,0.02,0.4,0.03,0.61,0.03c0,0,0,0,0.01,0c2.05,0,3.97-0.8,5.42-2.24c1.45-1.45,2.25-3.37,2.25-5.43c0-4.23-3.44-7.68-7.67-7.68
		c0,0,0,0-0.01,0c-2.05,0-3.97,0.8-5.42,2.24c-1.45,1.45-2.25,3.37-2.25,5.42v0.01c0,1.88,0.67,3.66,1.91,5.07
		c-1.07,3.06-4.41,9.67-9.04,8.89c-0.88-0.14-1.47-0.51-1.85-1.17c-0.96-1.67-0.54-5.18,1.15-9.64c0.03,0,0.05,0,0.08,0
		c0,0,0,0,0.01,0c4.37,0,7.92-3.55,7.93-7.93c0-4.37-3.55-7.93-7.92-7.93c0,0,0,0-0.01,0c-4.37,0-7.92,3.55-7.93,7.92v0.01
		c0,2.12,0.82,4.11,2.32,5.61c0.23,0.23,0.47,0.44,0.72,0.64c-0.45,0.81-0.88,1.65-1.3,2.48c-1.92,3.8-3.74,7.4-7.34,7.4
		c-0.04,0-0.07,0-0.11,0c-3.89-0.69-3.83-4.92-3.4-9.57c0.03-0.31,0.05-0.6,0.08-0.88c4.46-0.21,8.03-3.9,8.04-8.42
		c0-4.65-3.77-8.43-8.42-8.43c0,0,0,0-0.01,0c-4.64,0-8.42,3.78-8.43,8.42v0.01c0,2.87,1.44,5.41,3.64,6.94
		c-1.58,5.78-4.17,12.18-10.03,11.54c-3.84-0.47-4.38-6.66-4.12-12c2.16-0.09,4.18-0.96,5.71-2.5c1.62-1.62,2.52-3.77,2.52-6.08
		c0-1.72-0.5-3.37-1.44-4.76c3.02-2.23,5.11-5.32,6.26-9.28c1.17,0.92,2.49,1.51,3.86,1.74c9.19,5.22,19.99,7.89,30.49,10.48
		c10.53,2.59,21.43,5.27,30.67,10.54l0.24,0.1c3.29,0.87,5.44,2.63,6.07,4.97c0.5,1.87-0.1,3.91-1.56,5.35
		c-1.86,1.83-4.69,2.37-7.78,1.49l-1.08-0.31l-0.18,1.11c-0.83,5.12,1.44,7.9,3.49,9.34c3.63,2.54,8.99,2.57,12.62,1.2
		c1.23,10.43,7.69,12.42,10.5,12.78c4.88,0.63,9.85-1.82,11.08-5.47l0.32-0.94l-0.94-0.32c-1.76-0.6-2.82-1.4-3.25-2.44
		c-0.56-1.37-0.15-3.36,1.24-6.08c0.84-1.63,1.51-3.84,2.22-6.19c0.06-0.2,0.12-0.39,0.18-0.59c5.62,1.78,10.7,1.21,13.72-1.6
		c2.29-2.12,3.07-5.25,2.13-8.57l-0.26-0.93l-0.94,0.23c-7.2,1.77-8.8-2.07-11.01-7.39c-0.96-2.32-2.02-4.86-3.72-6.99
		c15.07,1.43,32.01,9.07,32.1,17.46c0.01,1.15-0.15,2.15-2.21,2.7l-1.13,0.3l0.48,1.07c1.8,4.03,5.06,5.88,8.72,4.97
		c3.41-0.85,6.89-4.27,7.69-8.77c5.89,7.88,12.46,22.18,10.24,32.62c-1.02,4.81-3.83,8.35-8.35,10.52
		c-3.18,0.68-5.74,0.28-7.63-1.21c-1.78-1.41-2.88-3.84-2.92-6.5c-0.03-1.69,1.55-4.06,3.7-4.69c2.19-0.65,4.36,0.66,6.29,3.77
		l0.45,0.73l0.79-0.33c3.84-1.63,5.45-5.7,3.91-9.9c-1.83-4.98-7.8-9.08-16.73-6.83c-0.3-4.5-3.51-11.49-8.81-14.03
		c-2.75-1.31-7.06-1.86-12,2.99l-0.67,0.66l0.61,0.71c4.99,5.79,3.5,7.3,0.52,10.3c-2.15,2.17-5,5.04-5.77,10.39
		c-2.51-2.3-5.94-3.14-9.41-2.19c-4.87,1.33-8.26,5.75-8.62,11.26l-0.1,1.51l1.77-0.62c2.43-0.86,4.95-1.75,7.15-0.59
		c1.95,1.02,3.58,3.64,4.86,7.78c-5.35-0.53-10.49,1.01-15.08,2.38c-4.57,1.37-8.52,2.55-10.98,1.06c-1.45-0.88-2.43-2.72-2.99-5.62
		l-0.16-0.85l-0.86,0.04c-3.96,0.19-6.62,2.8-7.31,7.14c-0.66,4.14,0.69,9.48,3.45,11.83c-11.29,7.65-14.76,19.56-15.81,31.06
		v-64.44H285.83z M412.81,285.7l-0.08,0.17l-0.01,0.18c-0.54,8.94-3.5,16.36-9.04,22.69c-7.97,9.11-11.25,17.14-9.01,22.04
		c0.91,1.99,3.17,4.33,8.76,4.6c-0.86,3.27-2.45,5.47-4.52,6.26c-2.16,0.82-4.8,0.11-7.64-2.06l-1.41-1.08l-0.18,1.77
		c-0.19,1.82-1.37,5-3.86,6.32c-2.96,1.57-4.53,5.45-3.58,8.84c0.63,2.23,2.21,3.74,4.4,4.3c-3.72,2.63-7.69,3.24-11.58,1.75
		c-6.26-2.39-11.38-9.83-12.18-17.7l-0.11-1.04l-1.03,0.16c-0.6,0.09-1.2,0.2-1.81,0.3c-5.24,0.91-9.81,1.71-13.08-6.09
		c9.8,0.95,10.88-3.8,11.85-8.02c0.26-1.14,0.51-2.22,0.92-3.18l0.51-1.18l-1.26-0.2c-1.77-0.28-3.76-0.52-5.86-0.77
		c-4.69-0.55-10.01-1.18-14.82-2.59c-7.01-2.07-14.79-0.23-19.35,4.57c-3.44,3.61-6.65,10.44-2.45,22.46
		c3.81,8.88,9.95,11.03,14.36,9.25c4.58-1.84,7.56-8.11,4.82-16.71c3.59,0.24,7.06,2.91,8.56,6.76c0.82,2.11,2.07,7.53-4.07,12.11
		l-3.34,2.49l4.11-0.71c13.45-2.34,28.14,2.53,37.42,12.38c8.26,8.76,11.17,20.51,8.21,33.07c-1.72,8.59-5.07,13.38-7.77,17.23
		c-2.99,4.26-5.19,7.41-2.16,12.56c-3.22,1.85-6.67,1.14-8.78-0.5c-1.86-1.45-3.39-4.18-2.09-7.51l1.94-4.96l-3.6,3.92
		c-2.08,2.27-5.34,1.62-8.79,0.92c-3.13-0.63-6.37-1.28-8.6,0.62c-1.62,1.38-2.42,3.85-2.47,7.68c-7.93-4.6-7.15-12.87-6.4-16.35
		c1.65-7.68,7.35-13.98,12.69-14.04l2.01-0.02l-1.23-1.59c-5.47-7.05-2.49-13.64,0.68-16.13c1.73-1.36,4.16-2.06,6.09-0.24
		c-3.15,4.71-1.36,7.79-0.41,8.92c2.41,2.88,7.62,3.74,11.37,1.87c3.61-1.8,5.05-5.53,3.96-10.23l-0.05-0.23l-0.15-0.18
		c-8.45-10.22-17.81-9.89-33.63-8.43l-1.09,0.1l0.2,1.07c0.78,4.22-0.58,8.73-3.46,11.49c-1.65,1.57-4.43,3.21-8.63,2.7
		c3.6-5.35-0.25-9.53-5.04-14.71c-5.67-6.14-13.43-14.54-13.45-29.61l-0.01-1.84c-0.06-14.69-0.13-34.81,16.65-45.12l1.73-1.06
		l-1.9-0.72c-2.51-0.95-4.38-6.28-3.7-10.56c0.35-2.21,1.44-4.84,4.6-5.37c0.72,2.98,1.94,4.97,3.72,6.05
		c3.21,1.94,7.55,0.65,12.58-0.86c4.82-1.44,10.28-3.07,15.72-2.11l1.54,0.27l-0.41-1.51c-1.51-5.63-3.56-9.06-6.28-10.48
		c-2.55-1.34-5.16-0.74-7.56,0.06c0.76-3.92,3.37-6.96,6.96-7.93c3.45-0.94,6.84,0.31,8.87,3.28l1.76,2.57l0.07-3.11
		c0.13-6.16,2.92-8.97,5.38-11.45c2.99-3.01,5.59-5.63,0.19-12.27c3.08-2.72,6.13-3.39,9.08-1.99c4.89,2.33,8.03,9.77,7.68,13.45
		l-0.14,1.49l1.43-0.45c8.41-2.62,13.96,0.88,15.56,5.24c0.9,2.45,0.56,5.45-2.08,7.01c-3.11-4.48-6.35-4.37-8.05-3.87
		c-3.12,0.92-5.17,4.17-5.13,6.64c0.05,3.25,1.43,6.25,3.68,8.03c1.65,1.3,4.62,2.63,9.41,1.57l0.21-0.07
		c5.17-2.45,8.38-6.47,9.54-11.95c2.59-12.19-5.62-28.59-12.28-36.33l-1.95-2.27l0.2,2.99c0.32,4.77-3.04,8.6-6.33,9.42
		c-2.43,0.61-4.51-0.42-5.93-2.88c2.28-1.03,2.56-2.87,2.54-4.24c-0.11-10.25-19.42-18.81-36.61-19.62l-3.05-0.14l2.38,1.92
		c2.53,2.03,3.82,5.15,5.07,8.16c2.11,5.08,4.29,10.32,12.34,8.78c0.38,2.24-0.24,4.22-1.78,5.66c-2.64,2.45-7.38,2.77-12.68,0.85
		l-0.98-0.36l-0.31,1c-0.17,0.53-0.33,1.06-0.48,1.58c-0.68,2.25-1.33,4.38-2.08,5.85c-1.68,3.27-2.11,5.8-1.32,7.74
		c0.55,1.36,1.67,2.41,3.42,3.18c-1.41,2.23-5.1,3.72-8.52,3.27c-5.17-0.67-8.42-5.18-8.9-12.36l-0.11-1.57l-1.38,0.77
		c-3,1.68-8.48,1.89-11.85-0.47c-2.05-1.43-2.98-3.55-2.79-6.32c3.37,0.65,6.45-0.15,8.59-2.25c1.97-1.93,2.77-4.73,2.09-7.28
		c-0.4-1.52-1.64-4.08-5.38-5.67l-0.12-0.38c-2.38-7.66-18.84-13.51-23.73-15.09c1.62-1.6,3.96-2,5.84-2c0.15,0,0.3,0,0.44,0.01
		c4.49,0.12,8.95,2.29,10.3,4.23l0.72,1.04l0.18-1.25c0.5-3.46-0.72-6.81-3.36-9.17c-2.58-2.31-6.24-3.5-10.51-3.5
		c-1.89,0-3.91,0.23-6,0.71c0.74-2.43,0.34-4.79-1.15-6.72c-1.84-2.39-5.21-3.88-8.55-3.88c-0.49,0-0.99,0.03-1.47,0.1l-0.65,0.09
		l0.26,0.6c1.57,3.63,1.39,6.54-0.52,8.65c-2.06,2.26-6.14,3.44-10.96,3.44c-1.82,0-3.74-0.17-5.7-0.51
		c1.99-2.39,3.15-5.62,3.05-8.99c0.02-4.81-2-8.66-5.67-10.84c-3.39-2.01-7.77-2.22-10.81-0.54c-1.67,0.72-2.86,1.8-4,2.85
		c-2.07,1.89-3.86,3.53-8.38,3.09l0.17-1.07l-0.01-0.11c-0.16-2.2-1.97-2.57-3.15-2.75c-1.25-7.18,0.01-13.41,4.17-20.57
		c3.01,0.65,5.31-1.06,6.84-5.1c6.14-3.73,8.94-8.68,9.72-13.28c3.58,7.3,8.93,11.36,13.3,14.66c5.12,3.87,8.82,6.66,7.03,12.57
		l-0.19,0.64l0.67,0c2.71-0.01,4.46-0.58,5.4-1.84c1.3-1.73,0.72-4.3,0.02-6.71c1.26,1.59,2.97,2.94,4.91,3.82
		c2.82,1.28,5.66,1.37,7.99,0.26c3.24-1.54,6.34-1.24,8.3,0.81c2.02,2.11,2.28,5.44,0.67,8.47l-0.39,0.73l0.82,0
		c0.02,0,0.03,0,0.05,0c3.23,0,5.56-1.91,6.41-5.24c1.06-4.18-0.44-10.21-3.95-13.63c2.99,0.51,5.89-0.04,7.62-1.56
		c1.14-1.01,2.33-2.91,1.49-6.28l-0.16-0.64l-0.57,0.33c-2.94,1.71-4.18,0.47-6.23-1.58c-2.17-2.17-5.02-4.98-11.17-4.73
		c2.9-1.86,5.46-5.28,6.07-10.2c0.42-3.39,0.34-8.14-5.17-10.26l-0.82-0.31c-1.6-1.92-3.87-3.18-5.97-3.2c-0.01,0-0.03,0-0.04,0
		c-2.62,0-5,1.65-5.95,4.11c-0.48,1.23-1.15,4.27,1.8,7.62c-3.89,1.26-7.73,0.83-10.29-1.24c-2.69-2.18-3.68-5.9-2.77-10.48
		l0.37-1.86l-1.74,0.75c-5.39,2.32-10.12,1.77-13.29-1.56c-0.39-0.41-0.75-0.85-1.07-1.33c-0.3-1.07-0.76-2.01-1.39-2.8
		c-1.01-2.93-1-6.36,0.13-9.47c2.68,2.62,5.1,3.81,7.35,3.67c3.52-0.23,5.84-3.54,8.3-7.04c2.15-3.06,4.37-6.23,7.35-7.11l1.58-0.47
		l-1.15-1.18c-4.53-4.67-3.63-10.42-0.74-14.05c2.21-2.77,5.9-4.69,9.57-3.28c-3.07,2.97-3.02,5.76-2.67,7.24
		c0.71,3.03,3.67,5.58,7.35,6.35c3.45,0.72,5.7,2.27,9.72,5.18l4.08,2.96l-2.64-4.29c-6.81-11.04-7.03-31.6,3.5-44.6
		c9.89-11.01,24.83-16.58,38.95-14.47c9.89,1.47,17.52,6.52,20.94,13.86l0.11,0.18c1.28,1.7,2,3.6,2.7,5.43
		c1.53,4.01,3.11,8.15,10.49,8.39c0.11,1.7-1.4,3.67-3.78,4.83c-3.15,1.52-7.94,1.56-11.09-3.35l-2.53-3.94l0.7,4.63
		c0.66,4.34-2.49,7.26-5.54,10.09c-2.52,2.34-4.9,4.55-4.89,7.45c0.01,1.75,0.91,3.5,2.76,5.35c-2.63,3.41-6.01,2.38-7.85,1.41
		c-4.89-2.57-8.63-9.55-6.31-15.04l1.64-3.89l-3.21,2.74c-4.1,3.51-10.2,1.84-13.5-1.72c-1.15-1.24-4.39-5.48-0.34-10.39
		c3.83,5.03,7.58,4.78,9.55,4.15c3.24-1.05,5.66-4.42,5.58-6.62l-0.01-0.13c-0.96-5.73-4.03-7.8-6.43-8.53
		c-6-1.82-14.45,2.61-18,6.37l-0.07,0.08c-6.69,8.79-2.93,22.47,9.57,34.84c1.29,1.54,2.81,3.02,4.41,4.58
		c3.59,3.5,7.3,7.11,9.54,12.65l0.57,1.4l1.07-1.07c3.08-3.11,6.81-5.17,9.5-5.25c2.68-0.08,4.64-1.27,5.36-3.26
		c0.64-1.75,0.21-3.86-1.07-5.62c3.48-0.69,6.1-0.25,7.81,1.29c2.79,2.52,2.47,7.29,2.03,9.92l-0.17,1l1,0.15
		c3.17,0.47,5.67,2,7.44,4.54c1.66,2.38,4.06,3.43,6.12,2.68c1.94-0.71,3.05-2.81,3.08-5.73c3.45,1.21,5.22,3.94,4.9,7.68
		c-0.47,5.52-5.48,11.68-12.75,12.01l-1.65,0.08l0.84,1.43c1.61,2.73,2.76,8.23,0.29,11.94c-1.82,2.73-5.35,3.94-10.27,3.54
		c1.39-2.74,1.45-5.36,0.12-7.36c-1.32-1.98-3.83-2.95-6.4-2.46c-7.31,1.39-10.73,7.23-14.04,12.87c-1.54,2.64-3.14,5.36-5.1,7.51
		l-3.62,3.97l4.8-2.4c7.85-3.93,16.82-4.46,24.73-4.93c8.11-0.48,15.11-0.89,18.17-5.12c1.69-2.33,2.02-5.63,1.02-10.05
		c4.04-0.25,7.59,1.56,9.62,5c2.47,4.17,1.99,9.38-1.24,13.59l-1.32,1.72l2.17-0.12c3-0.14,5.24,1.49,7.42,3.08
		c3.38,2.48,6.87,5.04,12.41,0.39c0.11,9.94-2.42,16.55-13.36,17.13l-1.39,0.07l0.52,1.29c0.77,1.94,1.39,6.87-0.68,9.48
		c-1.05,1.32-2.71,1.89-4.93,1.69c-0.37-2.97-1.38-5.07-3.08-6.4c-3.02-2.37-7.53-1.65-11.51-1.02c-1.73,0.28-3.37,0.54-4.78,0.54
		l-0.17,1.98c8.55,1.54,13.74,5.67,18.32,9.31c6.28,4.99,11.74,9.33,22.79,3.83c1.22,6.5-1.6,11.07-8.61,13.95l-1.1,0.45l0.63,1
		C422.29,240.08,423.3,262.63,412.81,285.7z M395.52,198.2c-3.29-2.55-7.02-5.14-12.06-6.86c1.76-0.28,3.54-0.55,5.17-0.55
		c1.73,0,3.28,0.3,4.45,1.22c1.39,1.09,2.17,2.99,2.41,5.81L395.52,198.2z"/>
</g>
</svg>
